<svg id="Layer_1" data-name="Layer 1" xmlns="http://www.w3.org/2000/svg" viewBox="0 0 101.833 37.715"><defs><style>.cls-1{fill:#d79491;}</style></defs><title>logo</title><path class="cls-1" d="M28.3,37.669H21.625L6.672,14.956V37.669H0V4.26H6.672l14.953,22.9V4.26H28.3V37.669Z" transform="translate(0 -0.285)"/><path class="cls-1" d="M34.732,1.3A4.307,4.307,0,0,1,37.715.285,4.3,4.3,0,0,1,40.7,1.3a3.371,3.371,0,0,1,1.136,2.626A3.314,3.314,0,0,1,40.7,6.509a4.3,4.3,0,0,1-2.981,1.017,4.307,4.307,0,0,1-2.983-1.017A3.312,3.312,0,0,1,33.6,3.928,3.369,3.369,0,0,1,34.732,1.3Zm6.294,10.151V37.669H34.355V11.453h6.672Z" transform="translate(0 -0.285)"/><path class="cls-1" d="M67.313,13.866a12,12,0,0,1,4.236,7.477H64.5a5.458,5.458,0,0,0-1.941-3.289,5.953,5.953,0,0,0-3.832-1.205A5.72,5.72,0,0,0,54.3,18.811a8.309,8.309,0,0,0-1.775,5.75A8.3,8.3,0,0,0,54.3,30.31a5.716,5.716,0,0,0,4.425,1.964,5.965,5.965,0,0,0,3.832-1.205A5.453,5.453,0,0,0,64.5,27.78h7.051a12,12,0,0,1-4.236,7.477A12.975,12.975,0,0,1,58.866,38a13.965,13.965,0,0,1-6.814-1.633,11.464,11.464,0,0,1-4.637-4.662,14.652,14.652,0,0,1-1.656-7.145,14.8,14.8,0,0,1,1.656-7.169,11.293,11.293,0,0,1,4.637-4.662,14.148,14.148,0,0,1,6.814-1.608A12.975,12.975,0,0,1,67.313,13.866Z" transform="translate(0 -0.285)"/><path class="cls-1" d="M95.279,12.73a11.8,11.8,0,0,1,4.8,4.662,14.165,14.165,0,0,1,1.75,7.169,14.028,14.028,0,0,1-1.75,7.145,11.979,11.979,0,0,1-4.8,4.662,15.33,15.33,0,0,1-13.769,0,11.967,11.967,0,0,1-4.8-4.662,14.028,14.028,0,0,1-1.75-7.145,14.165,14.165,0,0,1,1.75-7.169,11.783,11.783,0,0,1,4.8-4.662A15.544,15.544,0,0,1,95.279,12.73ZM83.662,18.859a7.777,7.777,0,0,0-1.941,5.7,7.779,7.779,0,0,0,1.941,5.7,6.682,6.682,0,0,0,9.464,0,7.779,7.779,0,0,0,1.941-5.7,7.777,7.777,0,0,0-1.941-5.7A6.682,6.682,0,0,0,83.662,18.859Z" transform="translate(0 -0.285)"/></svg>