<svg id="Layer_1" data-name="Layer 1" xmlns="http://www.w3.org/2000/svg" viewBox="0 0 148.028 32"><defs><style>.cls-1{fill:#333;}.cls-2{fill:#129dd8;}.cls-3{fill:#fff;}</style></defs><title>logo</title><path class="cls-1" d="M47.871,23.754h7.713v3.514h-12.3V4.294h4.588v19.46h0Z" transform="translate(0.014)"/><path class="cls-1" d="M71.842,10.118a8.107,8.107,0,0,1,3.3,3.206,9.742,9.742,0,0,1,1.205,4.928,9.647,9.647,0,0,1-1.205,4.913,8.235,8.235,0,0,1-3.3,3.206,10.543,10.543,0,0,1-9.468,0,8.229,8.229,0,0,1-3.3-3.206,9.647,9.647,0,0,1-1.2-4.913,9.741,9.741,0,0,1,1.2-4.928,8.1,8.1,0,0,1,3.3-3.206A10.689,10.689,0,0,1,71.842,10.118Zm-7.988,4.211a5.348,5.348,0,0,0-1.335,3.921,5.35,5.35,0,0,0,1.335,3.922,4.6,4.6,0,0,0,6.5.009l0.009-.009A5.35,5.35,0,0,0,71.7,18.25a5.348,5.348,0,0,0-1.335-3.921,4.6,4.6,0,0,0-6.5-.006l-0.009.009v0Z" transform="translate(0.014)"/><path class="cls-1" d="M108.192,11.013a8.128,8.128,0,0,1,1.9,5.777V27.268h-4.555V17.311a4.5,4.5,0,0,0-1.056-3.206,3.813,3.813,0,0,0-2.913-1.123,4.006,4.006,0,0,0-3.059,1.2A4.928,4.928,0,0,0,97.375,17.7v9.566H92.817V17.311a4.5,4.5,0,0,0-1.061-3.206,3.81,3.81,0,0,0-2.913-1.123,4.014,4.014,0,0,0-3.054,1.2A4.928,4.928,0,0,0,84.651,17.7v9.57h-4.59V9.24H84.65v3.419a5.593,5.593,0,0,1,2.261-2.717,6.679,6.679,0,0,1,3.6-.96,6.823,6.823,0,0,1,3.79,1.042,6.361,6.361,0,0,1,2.425,2.993A7.184,7.184,0,0,1,108.192,11.013Z" transform="translate(0.014)"/><path class="cls-1" d="M125.558,10.086a5.849,5.849,0,0,1,2.312,2.9V9.24h4.555V27.268H127.87V23.493a5.931,5.931,0,0,1-2.312,2.913,6.844,6.844,0,0,1-3.9,1.089,7.721,7.721,0,0,1-4.1-1.106,7.469,7.469,0,0,1-2.849-3.2,11.12,11.12,0,0,1-1.025-4.928,11.119,11.119,0,0,1,1.025-4.928,7.48,7.48,0,0,1,2.849-3.206,7.745,7.745,0,0,1,4.1-1.106A6.918,6.918,0,0,1,125.558,10.086Zm-5.921,4.327a5.416,5.416,0,0,0-1.3,3.84,5.353,5.353,0,0,0,1.3,3.824,4.928,4.928,0,0,0,6.883-.031,5.265,5.265,0,0,0,1.35-3.793,5.307,5.307,0,0,0-1.35-3.823,4.912,4.912,0,0,0-6.883-.017h0Z" transform="translate(0.014)"/><path class="cls-1" d="M144.307,9.971a7.078,7.078,0,0,1,3.707-.993v4.913h-1.332q-5.045,0-5.045,4.686v8.691h-4.589V9.24h4.589V12.69A7.546,7.546,0,0,1,144.307,9.971Z" transform="translate(0.014)"/><rect class="cls-2" width="32" height="32" rx="2.667" ry="2.667"/><path class="cls-3" d="M26.06,15.677a9.51,9.51,0,0,0-.1-1.145l-2-.331-0.674-1.888,1.329-1.524a10.058,10.058,0,0,0-1.429-1.844l-1.809.908L19.721,8.726,19.9,6.709a9.97,9.97,0,0,0-2.17-.639l-0.94,1.8-2,.041-1.03-1.746a10.034,10.034,0,0,0-2.2.777l0.3,2-1.6,1.224L8.4,9.366a10.015,10.015,0,0,0-1.32,1.92l1.414,1.445L7.923,14.652,5.949,15.1a10.18,10.18,0,0,0-.038,1.217,10.893,10.893,0,0,0,.1,1.111l2,0.336,0.67,1.89-1.344,1.52a10.2,10.2,0,0,0,1.425,1.853l1.813-.9,1.655,1.133-0.188,2.015a10.111,10.111,0,0,0,2.237.66l0.935-1.8,2.006-.055,1.034,1.743a10.144,10.144,0,0,0,2.2-.786l-0.3-2L21.737,21.8,23.6,22.6a10.034,10.034,0,0,0,1.316-1.925l-1.426-1.439,0.562-1.928,1.976-.448A10.231,10.231,0,0,0,26.06,15.677Zm-7.094,3.712a4.516,4.516,0,1,1,.006-0.005Z" transform="translate(0.014)"/></svg>