<svg id="Layer_1" data-name="Layer 1" xmlns="http://www.w3.org/2000/svg" viewBox="0 0 200.095 200.095"><defs><style>.cls-1{fill:#129dd8;}.cls-2{fill:#fff;}</style></defs><title>service-icon-6</title><rect class="cls-1" width="200.095" height="200.095" rx="22.565" ry="22.565"/><path class="cls-2" d="M100.5,59.162A39.915,39.915,0,0,0,60.585,99.076H75.553a9.978,9.978,0,0,1,9.979,9.977V134a9.978,9.978,0,0,1-9.978,9.978H60.585A9.978,9.978,0,0,1,50.607,134V99.076a49.893,49.893,0,0,1,99.786,0V134a9.978,9.978,0,0,1-9.978,9.978H125.447A9.978,9.978,0,0,1,115.469,134V109.055a9.978,9.978,0,0,1,9.977-9.979h14.968A39.915,39.915,0,0,0,100.5,59.162ZM60.585,109.055V134H75.553V109.055H60.585Zm64.861,0V134h14.968V109.055H125.446Z"/></svg>