<svg id="Layer_1" data-name="Layer 1" xmlns="http://www.w3.org/2000/svg" viewBox="0 0 200.095 200.095"><defs><style>.cls-1{fill:#129dd8;}.cls-2{fill:#fff;}</style></defs><title>service-icon-4</title><rect class="cls-1" width="200.095" height="200.095" rx="22.565" ry="22.565"/><path class="cls-2" d="M99.431,109.366v10.082a30.246,30.246,0,0,0-30.246,30.246H59.1a40.328,40.328,0,0,1,40.328-40.328h0Zm0-5.041a30.238,30.238,0,1,1,.017,0H99.431Zm0-10.082A20.164,20.164,0,1,0,79.267,74.079h0A20.158,20.158,0,0,0,99.419,94.243h0.012ZM144.8,124.489h5.041v25.205H109.513V124.489h5.041v-5.041a15.123,15.123,0,1,1,30.246,0v5.041Zm-10.082,0v-5.041a5.041,5.041,0,1,0-10.082,0h0v5.041h10.082Z"/></svg>