<svg id="Layer_1" data-name="Layer 1" xmlns="http://www.w3.org/2000/svg" viewBox="0 0 200.095 200.095"><defs><style>.cls-1{fill:#129dd8;}.cls-2{fill:#fff;}</style></defs><title>service-icon-3</title><rect class="cls-1" width="200.095" height="200.095" rx="22.565" ry="22.565"/><path class="cls-2" d="M100,147.664a48.671,48.671,0,0,1-14.6-95.1V62.9a38.936,38.936,0,1,0,50.7,50.7h10.337A48.682,48.682,0,0,1,100,147.664Zm48.422-43.8H95.133V50.578q2.4-.241,4.867-0.243A48.663,48.663,0,0,1,148.664,99v0Q148.664,101.46,148.422,103.867Zm-43.555-43.5V94.133h33.762A38.951,38.951,0,0,0,104.867,60.371Z"/></svg>