<svg id="Graphics" xmlns="http://www.w3.org/2000/svg" xmlns:xlink="http://www.w3.org/1999/xlink" viewBox="0 0 255.147 180.043"><defs><style>.cls-1{fill:#e5e3e3;}.cls-2{fill:#efeded;}.cls-3{fill:#ffcebd;}.cls-4{fill:#4d5068;}.cls-5{fill:#ffd255;}.cls-6{fill:#1191d1;}.cls-7{fill:#1fa4f8;}.cls-8{fill:#fff;}.cls-9{fill:#122d54;}.cls-10{fill:#5f6177;}.cls-11{fill:#717386;}.cls-12{opacity:0.29;}.cls-13{fill:#272834;}.cls-14{fill:#3a3c4e;}.cls-15{fill:url(#linear-gradient);}.cls-16{opacity:0.2;}.cls-17{fill:#f5f7f9;}.cls-18{fill:#e6e7e8;}.cls-19{fill:#ffbca7;}.cls-20{fill:#f0f1fe;}.cls-21{fill:url(#linear-gradient-2);}.cls-22{fill:#f2f3f7;}.cls-23{fill:#ff5722;}.cls-24{opacity:0.35;}.cls-25{fill:#231f20;}.cls-26{fill:#536dfe;}.cls-27{fill:#fce160;}</style><linearGradient id="linear-gradient" x1="148.614" y1="90.194" x2="162.296" y2="90.194" gradientUnits="userSpaceOnUse"><stop offset="0" stop-color="#e040fb"/><stop offset="0.007" stop-color="#e040f9"/><stop offset="0.372" stop-color="#ed4da4"/><stop offset="0.67" stop-color="#f65666"/><stop offset="0.887" stop-color="#fc5c40"/><stop offset="1" stop-color="#fe5e31"/></linearGradient><linearGradient id="linear-gradient-2" x1="124.754" y1="43.908" x2="187.981" y2="43.908" xlink:href="#linear-gradient"/></defs><title>static-image</title><g id="Layer_8" data-name="Layer 8"><path class="cls-1" d="M226.829,76.58c6.094,42.337-6.844,93.488-64.983,101.857S6.529,161.8.435,119.459,53.391,18.152,111.53,9.784,220.735,34.242,226.829,76.58Z"/><path class="cls-2" d="M255.121,110.107c0.588,28.107-7.835,70.358-109.776,69.933-68.672-.286-109.861-18.776-109.861-69.933S71.531,0,125.8,0,254.051,58.96,255.121,110.107Z"/></g><g id="Layer_6" data-name="Layer 6"><rect class="cls-3" x="143.831" y="156.244" width="6.977" height="11.699" transform="translate(-71.57 154.043) rotate(-45.628)"/><rect class="cls-3" x="104.23" y="157.247" width="6.977" height="11.699" transform="translate(52.594 -24.427) rotate(17.062)"/><polygon class="cls-4" points="67.706 129.955 61.305 175.65 63.558 175.709 75.496 128.521 67.84 128.521 67.706 129.955"/><polygon class="cls-4" points="115.036 129.955 121.436 175.65 119.184 175.709 107.245 128.521 114.902 128.521 115.036 129.955"/><path class="cls-5" d="M67.194,123.216h48.287a4.794,4.794,0,0,1,4.794,4.794v1.946a0,0,0,0,1,0,0H62.4a0,0,0,0,1,0,0V128.01A4.794,4.794,0,0,1,67.194,123.216Z"/><polygon class="cls-6" points="64.798 112.402 108.138 132.349 145.313 165.82 152.265 158.906 120.275 123.216 88.064 100.312 64.798 112.402"/><path class="cls-7" d="M62.2,102.629v8.16a12.8,12.8,0,0,0,12.795,12.795h40.4c-7.254,8.765-11.41,37.027-11.41,37.027l9.1,2.485,16.065-41.116a11.6,11.6,0,0,0-10.835-15.724H89.394l0.207-3.627H62.2Z"/><path class="cls-8" d="M79.507,63.468l7.54,1.422a14.951,14.951,0,0,1,10.644,8.09l6.17,12.537-6.177,13.89-0.628,6.244s-29.934,13.266-37.283,7.254L59.432,80.984l11.3-16.524Z"/><path class="cls-3" d="M69.03,54.224s2.39,10.741,1.887,16.987h8.765s-0.905-10.661.907-12.416Z"/><path class="cls-3" d="M84.425,45.36a16.281,16.281,0,0,0-1.726-5.6l-0.327.159a7.979,7.979,0,0,0-7.518-1.732,10.671,10.671,0,0,0-6.164,4.9,12.818,12.818,0,0,0-.956,11.042,12.521,12.521,0,0,0,8.195,7.433,4.978,4.978,0,0,0,4.387-.461A6.023,6.023,0,0,0,81.5,59.684a11.819,11.819,0,0,0,2.072-4.241,27.05,27.05,0,0,0,.15-3.756C83.832,49.564,84.545,47.482,84.425,45.36Z"/><path class="cls-9" d="M80.668,37.18a24.705,24.705,0,0,0-3.243-2.367A12.01,12.01,0,0,0,74.472,33.8c-2.572-.591-4.306-0.424-6.272,1.487a8.24,8.24,0,0,0-2.528,5.52,5.255,5.255,0,0,1-.137,1.4,5.073,5.073,0,0,1-.876,1.406,9.4,9.4,0,0,0-1.089,8.663,6.277,6.277,0,0,0,2.385,3.371c0.957,0.549,3.439.966,3.909,2.12a11.877,11.877,0,0,1-.819-5.557,2.987,2.987,0,0,1,.4-1.4,1.222,1.222,0,0,1,1.256-.57,2.677,2.677,0,0,1,.872.572,2.958,2.958,0,0,0,1.756.6,1.227,1.227,0,0,0,.71-0.171,1.307,1.307,0,0,0,.462-0.86,10.112,10.112,0,0,0-.745-4.948c-0.438-1.274-.522-2.941,1.174-2.833,1.524,0.1,3.084,1.031,4.712,1.12A13.61,13.61,0,0,0,88.93,40.8,19.337,19.337,0,0,1,80.668,37.18Z"/><polygon class="cls-6" points="76.962 71.211 79.507 62.864 81.012 63.147 82.604 76.551 76.962 71.211"/><path class="cls-3" d="M70.61,63.468l-8.018,1.517a11.9,11.9,0,0,0-8.761,7.083l-8.956,21.3a4.578,4.578,0,0,0,4.22,6.352l32.03-1.6L82.6,93.587l-3.526,1.2-20.048-1.7A2.113,2.113,0,0,1,57.5,89.741l13.421-18.53S73.325,64.59,70.61,63.468Z"/><path class="cls-8" d="M70.61,63.468l-8.018,1.517a11.9,11.9,0,0,0-8.761,7.083L47.645,85.215c4.836-.5,9.851,4.526,13.3,1.813l9.974-15.817S73.325,64.59,70.61,63.468Z"/><polygon class="cls-6" points="70.539 62.947 76.962 71.211 72.428 77.155 68.315 63.468 70.539 62.947"/><path class="cls-4" d="M101.4,165.6l-2.231,5.651v4.462h27.365v-1.234a2.391,2.391,0,0,0-1.837-2.326l-4.409-1.05-9.221-5.5h-1.636l-0.744,1.636h-4.759l-0.446-1.636H101.4Z"/><path class="cls-8" d="M99.172,173.33v2.38h27.365v-1.235a2.384,2.384,0,0,0-.293-1.145H99.172Z"/><path class="cls-4" d="M146.763,167.816l3.2,5.167,3.577,2.667L169.9,153.713l-0.99-.738a2.391,2.391,0,0,0-2.963.082l-3.477,2.907-9.923,4.1-0.978,1.311,0.867,1.574-2.845,3.815-1.578-.62Z"/><path class="cls-8" d="M151.629,174.227l1.908,1.422L169.9,153.713l-0.99-.738a2.384,2.384,0,0,0-1.093-.45Z"/><polygon class="cls-4" points="41.629 102.392 27.997 179.54 30.362 179.54 49.705 103.256 41.629 102.392"/><polygon class="cls-4" points="169.662 102.392 183.294 179.54 180.929 179.54 161.586 103.256 169.662 102.392"/><rect class="cls-10" x="18.238" y="98.962" width="170.621" height="5.483" rx="1.294" ry="1.294"/><rect class="cls-4" x="58.722" y="96.838" width="19.595" height="2.57"/><path class="cls-4" d="M111.8,99.407H71.464L80.971,74.8a1.534,1.534,0,0,1,1.431-.981h37.046a1.534,1.534,0,0,1,1.431,2.087Z"/><circle class="cls-11" cx="96.574" cy="86.612" r="2.514"/><g id="_Group_" data-name="&lt;Group&gt;"><g id="_Group_2" data-name="&lt;Group&gt;"><g id="_Group_3" data-name="&lt;Group&gt;"><g id="_Group_4" data-name="&lt;Group&gt;"><path id="_Path_" data-name="&lt;Path&gt;" class="cls-9" d="M124.563,93.409h-2.125a3.5,3.5,0,1,1,0-7.008H123.8v1.485h-1.365a2.019,2.019,0,1,0,0,4.038h2.125v1.485Z"/></g></g></g><g id="_Group_5" data-name="&lt;Group&gt;"><g id="_Group_6" data-name="&lt;Group&gt;"><path id="_Path_2" data-name="&lt;Path&gt;" class="cls-9" d="M136.081,85.236H123.165v3.927A11.132,11.132,0,0,0,126.1,96.7h0v1.96h7.037V96.7h0a11.133,11.133,0,0,0,2.94-7.537V85.236Z"/></g></g><g id="_Group_7" data-name="&lt;Group&gt;" class="cls-12"><g id="_Group_8" data-name="&lt;Group&gt;"><path id="_Path_3" data-name="&lt;Path&gt;" class="cls-8" d="M133.425,85.236v3.927a11.132,11.132,0,0,1-2.94,7.537h0v1.96H132V96.7h0a11.133,11.133,0,0,0,2.94-7.537V85.236h-1.518Z"/></g></g></g><g id="_Group_9" data-name="&lt;Group&gt;"><g id="_Group_10" data-name="&lt;Group&gt;"><g id="_Group_11" data-name="&lt;Group&gt;"><polygon id="_Path_4" data-name="&lt;Path&gt;" class="cls-13" points="163.11 99.182 165.371 99.182 163.11 89.521 154.761 99.182 163.11 99.182"/></g></g><g id="_Group_12" data-name="&lt;Group&gt;"><g id="_Group_13" data-name="&lt;Group&gt;"><polygon id="_Path_5" data-name="&lt;Path&gt;" class="cls-14" points="160.565 99.182 147.571 99.182 153.12 81.206 166.114 81.206 160.565 99.182"/></g></g><g id="_Group_14" data-name="&lt;Group&gt;"><g id="_Group_15" data-name="&lt;Group&gt;"><polygon id="_Path_6" data-name="&lt;Path&gt;" class="cls-4" points="159.178 99.182 146.183 99.182 151.733 81.206 164.727 81.206 159.178 99.182"/></g></g><g id="_Group_16" data-name="&lt;Group&gt;"><g id="_Group_17" data-name="&lt;Group&gt;"><polygon id="_Path_7" data-name="&lt;Path&gt;" class="cls-15" points="158.202 96.826 148.614 96.826 152.708 83.562 162.296 83.562 158.202 96.826"/></g></g><g id="_Group_18" data-name="&lt;Group&gt;" class="cls-16"><g id="_Group_19" data-name="&lt;Group&gt;"><polygon id="_Path_8" data-name="&lt;Path&gt;" class="cls-8" points="149.308 96.479 153.295 83.562 152.708 83.562 148.614 96.826 158.202 96.826 158.309 96.479 149.308 96.479"/></g></g></g><rect class="cls-8" x="77.192" y="4.101" width="49.757" height="24.011" rx="2.662" ry="2.662"/><rect class="cls-17" x="81.55" y="9.165" width="1.592" height="16.161"/><rect class="cls-17" x="84.388" y="9.165" width="1.592" height="16.161"/><rect class="cls-18" x="87.226" y="9.165" width="1.592" height="16.161"/><rect class="cls-17" x="90.065" y="9.165" width="1.592" height="16.161"/><rect class="cls-17" x="92.903" y="9.165" width="1.592" height="16.161"/><rect class="cls-17" x="95.742" y="9.165" width="1.592" height="16.161"/><rect class="cls-17" x="98.58" y="9.165" width="1.592" height="16.161"/><rect class="cls-17" x="101.418" y="9.165" width="1.592" height="16.161"/><rect class="cls-17" x="104.257" y="9.165" width="1.592" height="16.161"/><rect class="cls-17" x="107.095" y="9.165" width="1.592" height="16.161"/><rect class="cls-17" x="109.934" y="9.165" width="1.592" height="16.161"/><rect class="cls-6" x="81.55" y="21.285" width="1.592" height="4.04"/><rect class="cls-6" x="84.388" y="17.245" width="1.592" height="8.08"/><rect class="cls-6" x="87.226" y="17.245" width="1.592" height="8.08"/><rect class="cls-6" x="90.065" y="12.112" width="1.592" height="13.213"/><rect class="cls-6" x="92.903" y="14.817" width="1.592" height="10.508"/><rect class="cls-6" x="95.742" y="21.664" width="1.592" height="3.662"/><rect class="cls-6" x="98.58" y="14.817" width="1.592" height="10.508"/><rect class="cls-6" x="101.418" y="20.47" width="1.592" height="4.856"/><rect class="cls-6" x="104.257" y="17.245" width="1.592" height="8.08"/><rect class="cls-6" x="107.095" y="14.18" width="1.592" height="11.145"/><rect class="cls-6" x="109.934" y="12.668" width="1.592" height="12.658"/><rect class="cls-19" x="113.415" y="10.04" width="10.35" height="1.592"/><rect class="cls-20" x="113.415" y="14.499" width="10.35" height="0.796"/><rect class="cls-20" x="113.415" y="16.449" width="10.35" height="0.796"/><rect class="cls-20" x="113.415" y="18.4" width="10.35" height="0.796"/><rect class="cls-20" x="113.415" y="20.35" width="5.175" height="0.796"/><rect class="cls-8" x="119.769" y="19.2" width="72.075" height="38.926"/><rect class="cls-4" x="119.769" y="19.2" width="72.075" height="8.676"/><path class="cls-21" d="M124.853,51.718h63.091c-0.1,0,.151-14.192-0.034-15.62-2.172,1.142-3.828,3.328-6.132,4.468a10.444,10.444,0,0,1-6.167,1.127c-1.944-.327-3.527-1.793-5.523-1.927-2.592-.174-4.348,1.938-6.2,3.387-2.6,2.035-5.9,4.5-9.245,5.013A5.533,5.533,0,0,1,149.4,45.9c-1.739-2.106-2.628-4.02-5.578-4.425a9.24,9.24,0,0,0-6.717,1.692c-2.26,1.762-3.609,4.657-6.2,5.873a5.9,5.9,0,0,1-2.967.522c-0.662-.054-2.356-0.953-2.942-0.44C124.558,49.5,124.853,51.141,124.853,51.718Z"/><circle class="cls-8" cx="125.935" cy="23.484" r="0.95"/><circle class="cls-8" cx="130.351" cy="23.484" r="0.95"/><circle class="cls-8" cx="134.767" cy="23.484" r="0.95"/><g id="_Group_20" data-name="&lt;Group&gt;"><g id="_Group_21" data-name="&lt;Group&gt;"><g id="_Group_22" data-name="&lt;Group&gt;"><polygon id="_Path_9" data-name="&lt;Path&gt;" class="cls-8" points="243.578 66.135 243.578 106.126 213.526 106.126 213.526 106.126 213.526 66.135 243.578 66.135"/></g></g></g><rect id="_Rectangle_" data-name="&lt;Rectangle&gt;" class="cls-22" x="215.83" y="76.823" width="4.971" height="4.972"/><polygon id="_Path_10" data-name="&lt;Path&gt;" class="cls-22" points="241.787 78.066 222.936 78.066 222.936 78.066 222.936 76.823 222.936 76.823 241.787 76.823 241.787 78.066"/><polygon id="_Path_11" data-name="&lt;Path&gt;" class="cls-22" points="230.497 81.157 222.936 81.157 222.936 81.157 222.936 79.915 230.497 79.915 230.497 81.157"/><polygon id="_Path_12" data-name="&lt;Path&gt;" class="cls-22" points="241.787 87.849 222.936 87.849 222.936 87.849 222.936 86.607 241.787 86.607 241.787 87.849"/><polygon id="_Path_13" data-name="&lt;Path&gt;" class="cls-22" points="230.497 90.941 222.936 90.941 222.936 90.941 222.936 89.698 230.497 89.698 230.497 90.941"/><polygon id="_Path_14" data-name="&lt;Path&gt;" class="cls-22" points="241.787 97.633 222.936 97.633 222.936 97.633 222.936 96.39 241.787 96.39 241.787 97.633"/><polygon id="_Path_15" data-name="&lt;Path&gt;" class="cls-22" points="230.497 100.725 222.936 100.725 222.936 100.725 222.936 99.482 222.936 99.482 230.497 99.482 230.497 99.482 230.497 100.725 230.497 100.725"/><rect id="_Rectangle_2" data-name="&lt;Rectangle&gt;" class="cls-22" x="215.83" y="86.288" width="4.971" height="4.972"/><rect id="_Rectangle_3" data-name="&lt;Rectangle&gt;" class="cls-22" x="215.83" y="95.753" width="4.971" height="4.972"/><g id="_Group_23" data-name="&lt;Group&gt;"><polygon id="_Path_16" data-name="&lt;Path&gt;" class="cls-23" points="218.444 81.255 215.885 78.695 216.768 77.812 218.444 79.488 222.868 75.065 223.751 75.948 218.444 81.255"/></g><g id="_Group_24" data-name="&lt;Group&gt;"><polygon id="_Path_17" data-name="&lt;Path&gt;" class="cls-23" points="218.444 90.446 215.885 87.886 216.768 87.003 218.444 88.679 222.868 84.256 223.751 85.139 218.444 90.446"/></g><g id="_Group_25" data-name="&lt;Group&gt;"><polygon id="_Path_18" data-name="&lt;Path&gt;" class="cls-23" points="218.444 99.637 215.885 97.077 216.768 96.193 218.444 97.87 222.868 93.447 223.751 94.33 218.444 99.637"/></g><rect class="cls-8" x="167.914" y="43.561" width="46.512" height="33.488"/><rect class="cls-7" x="167.914" y="43.561" width="46.512" height="3.597"/><rect class="cls-8" x="170.241" y="44.54" width="1.949" height="1.64"/><rect class="cls-22" x="171.256" y="49.172" width="8.989" height="8.972" transform="translate(351.501 107.315) rotate(180)"/><rect class="cls-22" x="183.531" y="49.172" width="8.989" height="8.972" transform="translate(376.05 107.315) rotate(180)"/><rect class="cls-22" x="195.806" y="49.172" width="15.192" height="8.972" transform="translate(406.804 107.315) rotate(180)"/><rect class="cls-22" x="171.191" y="60.621" width="18.107" height="1.619"/><rect class="cls-22" x="171.001" y="64.967" width="39.997" height="0.809"/><rect class="cls-22" x="171.001" y="67.926" width="39.997" height="0.809"/><rect class="cls-22" x="171.171" y="70.884" width="39.997" height="0.809"/><rect class="cls-22" x="171.341" y="73.843" width="20.007" height="0.809"/><g id="_Group_26" data-name="&lt;Group&gt;"><g id="_Group_27" data-name="&lt;Group&gt;"><g id="_Group_28" data-name="&lt;Group&gt;"><g id="_Group_29" data-name="&lt;Group&gt;"><path id="_Rectangle_4" data-name="&lt;Rectangle&gt;" class="cls-5" d="M191.678,117.583H216a2.794,2.794,0,0,1,2.794,2.794v13.978a1.882,1.882,0,0,1-1.882,1.882H190.53a1.866,1.866,0,0,1-1.866-1.866V120.6A3.014,3.014,0,0,1,191.678,117.583Z" transform="translate(407.461 253.82) rotate(180)"/></g></g><g id="_Group_30" data-name="&lt;Group&gt;"><g id="_Group_31" data-name="&lt;Group&gt;"><path id="_Path_19" data-name="&lt;Path&gt;" class="cls-5" d="M189.005,118.257l12.617-10.28a3.711,3.711,0,0,1,4.379,0l11.93,9.863Z"/></g></g><g id="_Group_32" data-name="&lt;Group&gt;"><g id="_Group_33" data-name="&lt;Group&gt;"><g id="_Group_34" data-name="&lt;Group&gt;"><path id="_Path_20" data-name="&lt;Path&gt;" class="cls-8" d="M197.45,103.315l-4.415,4.287v23.535h20.907V105.086a1.771,1.771,0,0,0-1.771-1.771H197.45Z"/></g></g><g id="_Group_35" data-name="&lt;Group&gt;" class="cls-24"><g id="_Group_36" data-name="&lt;Group&gt;"><polygon id="_Path_21" data-name="&lt;Path&gt;" class="cls-25" points="197.188 107.156 193.035 111.905 193.035 107.602 197.188 107.156"/></g></g><g id="_Group_37" data-name="&lt;Group&gt;"><g id="_Group_38" data-name="&lt;Group&gt;"><path id="_Path_22" data-name="&lt;Path&gt;" class="cls-26" d="M197.45,103.315l-4.415,4.287h3.237a1.177,1.177,0,0,0,1.178-1.177v-3.11Z"/></g></g></g><g id="_Group_39" data-name="&lt;Group&gt;"><g id="_Group_40" data-name="&lt;Group&gt;"><path id="_Path_23" data-name="&lt;Path&gt;" class="cls-27" d="M189.537,136.311s11.637-8.118,11.637-8.854l-12.169-9.2a6.949,6.949,0,0,0-.341,2.407v14.822A0.829,0.829,0,0,0,189.537,136.311Z"/></g></g><g id="_Group_41" data-name="&lt;Group&gt;"><g id="_Group_42" data-name="&lt;Group&gt;"><path id="_Path_24" data-name="&lt;Path&gt;" class="cls-27" d="M218.146,136.311s-11.382-8.291-11.382-9.027l11.814-8.68a3.272,3.272,0,0,1,.441,2.061v14.822A0.829,0.829,0,0,1,218.146,136.311Z"/></g></g><g id="_Group_43" data-name="&lt;Group&gt;"><g id="_Group_44" data-name="&lt;Group&gt;"><path id="_Path_25" data-name="&lt;Path&gt;" class="cls-5" d="M189.418,136.329l12.247-10.07a3.669,3.669,0,0,1,4.329,0l12.246,10.07H189.418Z"/></g></g><g id="_Group_45" data-name="&lt;Group&gt;"><g id="_Group_46" data-name="&lt;Group&gt;"><g id="_Group_47" data-name="&lt;Group&gt;"><path id="_Compound_Path_" data-name="&lt;Compound Path&gt;" class="cls-26" d="M206.314,118.5a5.735,5.735,0,0,1-2.8.629,4.683,4.683,0,0,1-4.767-4.909,5.754,5.754,0,0,1,5.742-6.041,4.37,4.37,0,0,1,4.578,4.547c0,2.36-1.321,3.744-2.8,3.744a1.165,1.165,0,0,1-1.164-1.385h-0.063a2.471,2.471,0,0,1-2.218,1.385,1.784,1.784,0,0,1-1.7-1.983,3.714,3.714,0,0,1,3.728-3.728,4.136,4.136,0,0,1,1.684.331L206,113.936c-0.236,1.2-.047,1.747.472,1.762,0.8,0.015,1.7-1.054,1.7-2.88a3.606,3.606,0,0,0-3.807-3.917c-2.564,0-4.72,2.03-4.72,5.224a3.93,3.93,0,0,0,4.043,4.248,4.913,4.913,0,0,0,2.376-.551Zm-0.865-6.8a2.559,2.559,0,0,0-3.288,2.721,1.039,1.039,0,0,0,1.038,1.2c0.913,0,1.746-1.165,1.919-2.141Z"/></g></g></g></g></g><g id="_Group_48" data-name="&lt;Group&gt;"><rect id="_Rectangle_5" data-name="&lt;Rectangle&gt;" class="cls-8" x="192.889" y="83.269" width="12.799" height="12.799" rx="3.248" ry="3.248"/><path id="_Path_26" data-name="&lt;Path&gt;" class="cls-9" d="M203.81,83.269h-9.043a1.878,1.878,0,0,0-1.878,1.878v1.962h12.8V85.147A1.878,1.878,0,0,0,203.81,83.269Z"/><g id="_Group_49" data-name="&lt;Group&gt;"><path id="_Compound_Path_2" data-name="&lt;Compound Path&gt;" class="cls-4" d="M197.836,90.76a0.738,0.738,0,0,0,.154-0.423A0.469,0.469,0,0,0,197.857,90a0.461,0.461,0,0,0-.344-0.137,0.936,0.936,0,0,0-.728.548l-0.728-.431a2.254,2.254,0,0,1,.626-0.67,1.534,1.534,0,0,1,.868-0.227,1.4,1.4,0,0,1,.927.335,1.128,1.128,0,0,1,.4.912,1.227,1.227,0,0,1-.16.6,3.957,3.957,0,0,1-.591.737l-0.734.764H199v0.816h-2.873V92.57l1.195-1.224A5.238,5.238,0,0,0,197.836,90.76Z"/><path id="_Compound_Path_3" data-name="&lt;Compound Path&gt;" class="cls-4" d="M202.262,89.172v0.787h-1.608v0.682a1.479,1.479,0,0,1,.414-0.053,1.533,1.533,0,0,1,1.014.355,1.185,1.185,0,0,1,.425.959,1.279,1.279,0,0,1-.44,1,1.572,1.572,0,0,1-1.087.393,1.785,1.785,0,0,1-1.381-.612l0.478-.664q0.053,0.052.14,0.128a1.91,1.91,0,0,0,.321.2,0.977,0.977,0,0,0,.466.125,0.657,0.657,0,0,0,.414-0.14,0.491,0.491,0,0,0,.181-0.414,0.5,0.5,0,0,0-.2-0.423,0.81,0.81,0,0,0-.5-0.148,1.552,1.552,0,0,0-.717.221l-0.383-.01,0-2.385h2.459Z"/></g></g></g></svg>