<svg id="Layer_2" data-name="Layer 2" xmlns="http://www.w3.org/2000/svg" viewBox="0 0 177.986 29.192"><defs><style>.cls-1{fill:#fff;}</style></defs><title>logo</title><path class="cls-1" d="M48.558,25.656H61.6v3.536H43.73V25.808L56.5,5.889H44V2.357h17.41V5.738Z"/><path class="cls-1" d="M73,5.852v8.136h9.883v3.344H73v8.324H84.022v3.536H68.666V2.357H84.022v3.5H73Z"/><path class="cls-1" d="M112.8,29.192h-4.334L95.426,9.388v19.8H91.094V2.394h4.332l13.039,19.881V2.394H112.8v26.8Z"/><path class="cls-1" d="M125.228,2.357V29.192h-4.334V2.357h4.334Z"/><path class="cls-1" d="M150.582,2.357v3.5h-7.489v23.34h-4.371V5.852h-7.452v-3.5h19.312Z"/><path class="cls-1" d="M177.986,2.357V29.192h-4.371V17.143H161V29.192h-4.334V2.357H161V13.608h12.618V2.357h4.371Z"/><path class="cls-1" d="M25.292,14.554L16.914,0.042a0.085,0.085,0,0,0-.147,0L8.389,14.554,0.012,29.065a0.085,0.085,0,0,0,.073.127h33.53a0.074,0.074,0,0,0,.064-0.112Zm1.495,10.7H6.908a0.05,0.05,0,0,1-.044-0.076l4.967-8.6,4.967-8.6a0.05,0.05,0,0,1,.087,0l4.967,8.6,4.972,8.612A0.044,0.044,0,0,1,26.787,25.25Z"/></svg>