<svg id="Layer_3" data-name="Layer 3" xmlns="http://www.w3.org/2000/svg" viewBox="0 0 128 42"><defs><style>.cls-1{fill:#fff;}</style></defs><title>logo</title><path class="cls-1" d="M13.806,25.729q-1.521,0-2.3-.055A113.446,113.446,0,0,0,8.809,40.369Q6.4,41.551,1.457,41.551A12.5,12.5,0,0,1,0,41.5q0.39-3.32,3.366-16.7T6.339,7.936a3.456,3.456,0,0,0-.758-1.773A10.779,10.779,0,0,0,4.037,4.335L3.311,3.6,3.48,2.758A107.948,107.948,0,0,1,18.742,1.352q11.556,0,11.559,9.458A14.7,14.7,0,0,1,26.15,21.422Q22,25.731,13.806,25.729Zm-0.9-3.771a7.386,7.386,0,0,0,6.535-3.267,15.281,15.281,0,0,0,2.219-8.724,7.26,7.26,0,0,0-.84-3.689A2.7,2.7,0,0,0,18.35,4.839a11.307,11.307,0,0,0-2.64.394q-0.9,5.918-3.366,16.725h0.562Z"/><path class="cls-1" d="M29.625,31.585q0-7.038,4.238-11.121a13.511,13.511,0,0,1,9.627-4.083,8.7,8.7,0,0,1,5.444,1.636,5.218,5.218,0,0,1,2.133,4.362,7.5,7.5,0,0,1-1.379,4.591,9.535,9.535,0,0,1-3.338,2.868,25.373,25.373,0,0,1-7.293,2.479l-1.347.17q0.39,5.292,4.32,5.292a6.994,6.994,0,0,0,2.863-.678,10.774,10.774,0,0,0,2.357-1.352l0.84-.674,1.347,1.8a9.207,9.207,0,0,1-1.795,1.636A24.873,24.873,0,0,1,45.116,40.2,14.473,14.473,0,0,1,37.987,42a7.456,7.456,0,0,1-6.115-2.758Q29.625,36.485,29.625,31.585ZM42.2,27.305a7.217,7.217,0,0,0,1.685-4.953c0-2.025-.6-3.043-1.8-3.043q-2.13,0-3.279,3.634a22.527,22.527,0,0,0-1.151,6.786A7.606,7.606,0,0,0,42.2,27.305Z"/><path class="cls-1" d="M69.809,17.059a10.149,10.149,0,0,1-.954,3.267,38.343,38.343,0,0,0-4.042-.229H63.8q-2.583,12.557-2.58,15.653,0,1.636.7,1.636a14.219,14.219,0,0,0,3.731-1.407l1.014,1.856Q61.666,42,57.405,42a4.292,4.292,0,0,1-4.489-4.532,25.719,25.719,0,0,1,.48-4.642q0.473-2.591,1.315-6.337t1.238-6.053c-1.388.115-2.416,0.225-3.087,0.339a11.3,11.3,0,0,1-.114-1.828,8.825,8.825,0,0,1,.169-1.888h3.535a39.112,39.112,0,0,0,.452-5.746L56.844,9.572V9.4A25.215,25.215,0,0,1,65.1,7.881a15.059,15.059,0,0,1,.224,2.813,39.158,39.158,0,0,1-.954,6.365h5.444Z"/><path class="cls-1" d="M85.519,18.017a8.634,8.634,0,0,0,.621-1.466,22.567,22.567,0,0,1,7.07,1.576A78.4,78.4,0,0,0,90.963,27.9a51.992,51.992,0,0,0-.84,7.263c0,1.448.151,2.172,0.448,2.172a11.425,11.425,0,0,0,2.471-1.072l0.676-.339,1.009,1.97c-0.338.3-.776,0.678-1.32,1.127a18.9,18.9,0,0,1-3.06,1.833A9.044,9.044,0,0,1,86.3,42q-3.48,0-4.037-3.153Q78.671,42,75.783,42A6.265,6.265,0,0,1,70.9,39.75q-1.987-2.254-1.991-7.093,0-7.547,3.087-11.909t7.462-4.367A12.228,12.228,0,0,1,85.519,18.017Zm-6.394,19.2a5.835,5.835,0,0,0,3.028-1.068,68.5,68.5,0,0,1,2.64-15.712,7.508,7.508,0,0,0-2.863-.733q-2.021,0-3.453,3.973a25.619,25.619,0,0,0-1.429,8.752Q77.048,37.219,79.125,37.216Z"/><path class="cls-1" d="M100.083,42a4.274,4.274,0,0,1-3.2-1.292,4.981,4.981,0,0,1-1.265-3.634q0-2.337,2.777-14.919T101.179,4l-0.338-2.479A25.062,25.062,0,0,1,109.034,0a4.96,4.96,0,0,1,.562,2.758q0,4.5-2.836,17.426t-2.831,15.034c0,1.407.169,2.112,0.5,2.112l3.928-1.411,1.014,1.97a23.941,23.941,0,0,1-4.631,2.818A11.279,11.279,0,0,1,100.083,42Z"/><path class="cls-1" d="M128,33.949a6.883,6.883,0,0,1-3.115,5.8,11.8,11.8,0,0,1-7.1,2.25,10.531,10.531,0,0,1-6.311-1.686q-2.329-1.691-2.329-2.983,0-.79,1.964-2.566a9.5,9.5,0,0,1,3.311-2.167,14.841,14.841,0,0,1,4.6,6.589q2.076-.172,2.073-1.97,0-2.591-4.544-7.35t-4.544-7.57a4.861,4.861,0,0,1,2.525-4.367,11.42,11.42,0,0,1,6.088-1.549,9.307,9.307,0,0,1,5.357,1.269,3.987,3.987,0,0,1,1.795,3.432q0,2.172-3.421,6c0.26,0.266.6,0.609,1.009,1.04a13.487,13.487,0,0,1,1.626,2.451A6.941,6.941,0,0,1,128,33.949Zm-3.032-12.835q0-1.973-2.694-1.97a3.948,3.948,0,0,0-2.133.532,1.485,1.485,0,0,0-.84,1.21q0,1.244,2.471,3.492l0.84,0.733Q124.968,23.083,124.968,21.115Z"/></svg>