<svg id="Layer_2" data-name="Layer 2" xmlns="http://www.w3.org/2000/svg" viewBox="0 0 131 44"><defs><style>.cls-1{fill:#fff;}</style></defs><title>logo</title><path class="cls-1" d="M10.437,0.325q1.344-.062,4.642-0.192T20.745,0a39.371,39.371,0,0,1,8.836.832A10.164,10.164,0,0,1,35.119,4q2.016,2.336,2.017,6.748A14.222,14.222,0,0,1,34.255,19.8a12.268,12.268,0,0,1-7.684,4.573A50.42,50.42,0,0,0,31.5,34.7q2.561,3.87,4.994,4.956a5.48,5.48,0,0,1-2.3,3.23,7.254,7.254,0,0,1-3.97,1.055,7.738,7.738,0,0,1-5.858-2.462,20.178,20.178,0,0,1-4-6.971Q18.7,30,16.263,21.3a7.876,7.876,0,0,0,1.089.064q4.673,0,7.138-2.654T26.956,11.2A8.339,8.339,0,0,0,25.547,5.92q-1.409-1.758-4.61-1.758a18.363,18.363,0,0,0-3.009.256L10.564,42.662H0L8,0.453Z" transform="translate(0 -0.004)"/><path class="cls-1" d="M68.158,12.092q2.848,3.326,2.849,9.529A27.7,27.7,0,0,1,68.8,32.781,18.643,18.643,0,0,1,62.171,40.9,18.3,18.3,0,0,1,51.542,43.94q-6.468,0-9.316-3.357t-2.849-9.625A27.479,27.479,0,0,1,41.586,19.83,17.887,17.887,0,0,1,58.841,8.766Q65.308,8.766,68.158,12.092ZM52.951,15.706a30.84,30.84,0,0,0-2.817,9.3,51.247,51.247,0,0,0-1.088,9.657,8.274,8.274,0,0,0,.8,4A2.974,2.974,0,0,0,52.695,40.1,5.2,5.2,0,0,0,57.4,37a31.7,31.7,0,0,0,2.786-9.369,52.169,52.169,0,0,0,1.152-9.593,8,8,0,0,0-.833-4.029A3.071,3.071,0,0,0,57.625,12.6Q54.679,12.6,52.951,15.706Z" transform="translate(0 -0.004)"/><path class="cls-1" d="M87.365,32.973a38.634,38.634,0,0,0-4.577-3.485A22.741,22.741,0,0,1,77.6,25.139a7.646,7.646,0,0,1-1.665-4.989,9.372,9.372,0,0,1,2.016-5.916,13.14,13.14,0,0,1,5.507-4.029,20.221,20.221,0,0,1,7.779-1.439,13.864,13.864,0,0,1,6.755,1.439,4.962,4.962,0,0,1,2.593,4.7A5.13,5.13,0,0,1,98.89,19a6.55,6.55,0,0,1-4.45,1.47,4.134,4.134,0,0,1-2.689-.7,11.991,11.991,0,0,0,.9-4.157,3.75,3.75,0,0,0-.865-2.654,3.122,3.122,0,0,0-2.4-.927,4.588,4.588,0,0,0-4.674,4.541,4.309,4.309,0,0,0,1.376,3.2,34.276,34.276,0,0,0,4.642,3.517,24.469,24.469,0,0,1,5.122,4.285,7.588,7.588,0,0,1,1.665,5.053,9.475,9.475,0,0,1-1.953,5.852,12.96,12.96,0,0,1-5.378,4.06A19.209,19.209,0,0,1,82.531,44a17.352,17.352,0,0,1-7.779-1.631,5.223,5.223,0,0,1-3.3-4.892,4.307,4.307,0,0,1,1.857-3.741,7.464,7.464,0,0,1,4.418-1.311,6.122,6.122,0,0,1,3.457.9,9.606,9.606,0,0,0-.9,3.645,3.905,3.905,0,0,0,.9,2.719,3.358,3.358,0,0,0,2.625.991,4.967,4.967,0,0,0,3.521-1.31A4.369,4.369,0,0,0,87.365,32.973Z" transform="translate(0 -0.004)"/><path class="cls-1" d="M131,16.313a9.231,9.231,0,0,1-4.707,8.25Q121.588,27.5,113.52,27.5h-2.241a29.685,29.685,0,0,0-.192,3.262,7.706,7.706,0,0,0,1.28,4.828q1.282,1.63,4.356,1.631a10.757,10.757,0,0,0,4.992-1.183,8.238,8.238,0,0,0,3.522-3.358,2.781,2.781,0,0,1,1.535,2.814,6.227,6.227,0,0,1-1.761,4.254,11.82,11.82,0,0,1-4.769,3.069,18.769,18.769,0,0,1-6.593,1.119q-5.956,0-9.092-3.293t-3.138-10.073a26.076,26.076,0,0,1,2.209-10.68A18.257,18.257,0,0,1,121.2,8.766Q131,8.766,131,16.313Zm-16.135-.7a25.718,25.718,0,0,0-3.137,8.954,12.489,12.489,0,0,0,7.746-2.366,7.592,7.592,0,0,0,3.137-6.4q0-3.581-2.817-3.582T114.865,15.609Z" transform="translate(0 -0.004)"/></svg>