<svg id="Layer_3" data-name="Layer 3" xmlns="http://www.w3.org/2000/svg" viewBox="0 0 176 43.103"><defs><style>.cls-1{fill:#fdc689;}</style></defs><title>logo</title><path class="cls-1" d="M19.3,37.956a13.149,13.149,0,0,1-5.6-1.187,14.65,14.65,0,0,1-4.474-3.2,15.866,15.866,0,0,1-3.075-4.656A15.4,15.4,0,0,1,4.87,23.344h-3.9A0.86,0.86,0,0,1,0,22.37,22.63,22.63,0,0,1,1.43,14.4,21.7,21.7,0,0,1,5.448,7.607,20.193,20.193,0,0,1,11.6,2.859a17.133,17.133,0,0,1,7.823-1.8,17.606,17.606,0,0,1,5.936,1,18.782,18.782,0,0,1,5.175,2.8,20.684,20.684,0,0,1,4.14,4.262A21.371,21.371,0,0,1,37.5,14.456a1.27,1.27,0,0,1-.031.822,0.825,0.825,0,0,1-.578.517,0.282,0.282,0,0,0-.122.03,0.4,0.4,0,0,1-.183.032,1.092,1.092,0,0,1-.974-0.67,18.985,18.985,0,0,0-2.526-4.779,19.219,19.219,0,0,0-3.713-3.866,16.656,16.656,0,0,0-4.627-2.557,15.561,15.561,0,0,0-5.327-.913,15.478,15.478,0,0,0-6.848,1.522A17.33,17.33,0,0,0,7.153,8.673a20.04,20.04,0,0,0-3.622,5.845,20.767,20.767,0,0,0-1.522,6.818H5.844a0.9,0.9,0,0,1,.7.305,1.058,1.058,0,0,1,.274.73,14.522,14.522,0,0,0,.913,5.083,13.907,13.907,0,0,0,2.557,4.353,12.328,12.328,0,0,0,3.957,3.014A11.367,11.367,0,0,0,19.3,35.947,11.775,11.775,0,0,0,25.873,34a12.486,12.486,0,0,0,4.566-5.418,0.983,0.983,0,0,1,.913-0.548,1.388,1.388,0,0,1,.427.062,0.927,0.927,0,0,1,.487.578,1.225,1.225,0,0,1,0,.76A15.286,15.286,0,0,1,27,35.612,13.364,13.364,0,0,1,19.3,37.956Zm0.122,5.723a17.675,17.675,0,0,1-6.332-1.157,19.054,19.054,0,0,1-5.54-3.257,20.567,20.567,0,0,1-4.292-5.023A22.266,22.266,0,0,1,.609,27.85,0.836,0.836,0,0,1,.73,27.088,1.216,1.216,0,0,1,1.4,26.631a1.893,1.893,0,0,1,.731.153,0.684,0.684,0,0,1,.426.578A20.6,20.6,0,0,0,4.84,32.9a19.105,19.105,0,0,0,3.744,4.566,17.215,17.215,0,0,0,4.931,3.074,15.376,15.376,0,0,0,5.9,1.125,15.573,15.573,0,0,0,5.388-.944,17.03,17.03,0,0,0,4.749-2.647A18.743,18.743,0,0,0,33.362,34a19.394,19.394,0,0,0,2.557-5.3,0.9,0.9,0,0,1,.974-0.73,0.271,0.271,0,0,1,.122.03,0.414,0.414,0,0,0,.183.03,1,1,0,0,1,.669,1.279A22.238,22.238,0,0,1,35,35.185a20.2,20.2,0,0,1-4.261,4.536,19.247,19.247,0,0,1-5.327,2.922A17.648,17.648,0,0,1,19.42,43.679ZM6.636,18.291q-1.279-.365-0.974-1.339a15.427,15.427,0,0,1,2.07-4.079,15.936,15.936,0,0,1,3.1-3.288A13.727,13.727,0,0,1,25.021,7.912a14.349,14.349,0,0,1,4.687,3.5,0.863,0.863,0,0,1,.274.7,1.091,1.091,0,0,1-.335.7,0.907,0.907,0,0,1-.669.243,1,1,0,0,1-.731-0.3,12.553,12.553,0,0,0-4.079-3.014,11.748,11.748,0,0,0-8.8-.4,11.758,11.758,0,0,0-3.378,1.888,13.493,13.493,0,0,0-2.648,2.831,12.865,12.865,0,0,0-1.735,3.562A1.014,1.014,0,0,1,6.636,18.291Zm24.29-2.374a1.456,1.456,0,0,1-.914-0.578,1.1,1.1,0,0,1-.122-0.882,1.057,1.057,0,0,1,1.035-.731,0.865,0.865,0,0,1,.365.061,0.923,0.923,0,0,1,.609.518,1.3,1.3,0,0,1,.061.883A0.994,0.994,0,0,1,30.926,15.917Z" transform="translate(0 -0.758)"/><path class="cls-1" d="M42.493,22.067a22.391,22.391,0,0,1,.761-5.785,22.735,22.735,0,0,1,2.192-5.387,21.336,21.336,0,0,1,3.5-4.6,18.493,18.493,0,0,1,4.688-3.409,0.7,0.7,0,0,1,.487-0.122,0.955,0.955,0,0,1,.853.487,0.929,0.929,0,0,1,.091.822,1.038,1.038,0,0,1-.518.578A18.635,18.635,0,0,0,50.285,7.79a18.385,18.385,0,0,0-3.166,4.14,20.318,20.318,0,0,0-1.948,4.87,20.892,20.892,0,0,0-.67,5.266,20.42,20.42,0,0,0,1.309,7.214,19.822,19.822,0,0,0,3.653,6.18,17.91,17.91,0,0,0,5.6,4.291,15.88,15.88,0,0,0,7.153,1.614,15.693,15.693,0,0,0,7.123-1.614,17.833,17.833,0,0,0,5.571-4.323A20.5,20.5,0,0,0,78.655,15.1a20.015,20.015,0,0,0-3.409-6.027A18.266,18.266,0,0,0,69.98,4.716a15.978,15.978,0,0,0-6.788-1.948V7.09a0.862,0.862,0,0,1-.974.974A11.278,11.278,0,0,0,57.1,9.22a12.014,12.014,0,0,0-3.927,3.1,14.475,14.475,0,0,0-2.5,4.444,15.416,15.416,0,0,0-.883,5.176,15.222,15.222,0,0,0,.883,5.113A14.118,14.118,0,0,0,53.208,31.5a12.41,12.41,0,0,0,3.927,3.1,11.078,11.078,0,0,0,5.083,1.157,11.273,11.273,0,0,0,5.114-1.157,12.51,12.51,0,0,0,3.957-3.074,13.756,13.756,0,0,0,2.526-4.413,15.421,15.421,0,0,0,.884-5.175,14.867,14.867,0,0,0-2.1-7.854,12.367,12.367,0,0,0-5.692-5.053,0.817,0.817,0,0,1-.518-0.518,0.9,0.9,0,0,1,.031-0.76,0.843,0.843,0,0,1,.913-0.609,0.865,0.865,0,0,1,.365.061,13.764,13.764,0,0,1,3.714,2.4,15.86,15.86,0,0,1,2.831,3.409,16.4,16.4,0,0,1,1.826,4.17,17.326,17.326,0,0,1,.639,4.749,16.965,16.965,0,0,1-1.065,5.965,16.471,16.471,0,0,1-2.953,5.053,14.138,14.138,0,0,1-4.565,3.5,13.254,13.254,0,0,1-5.906,1.309,12.825,12.825,0,0,1-5.875-1.339A15.014,15.014,0,0,1,51.777,32.9a15.721,15.721,0,0,1-2.952-5.053,17.213,17.213,0,0,1-1.035-5.9,17.542,17.542,0,0,1,.944-5.693,15.731,15.731,0,0,1,2.71-4.931,15.387,15.387,0,0,1,4.231-3.592,12.286,12.286,0,0,1,5.509-1.613V1.732A0.889,0.889,0,0,1,62.218.758a17.461,17.461,0,0,1,7.915,1.8A20.431,20.431,0,0,1,76.342,7.3a21.892,21.892,0,0,1,4.079,6.788,22.214,22.214,0,0,1,1.461,7.976,22.456,22.456,0,0,1-1.461,8.005,21.789,21.789,0,0,1-4.079,6.818A19.908,19.908,0,0,1,70.1,41.608a18.621,18.621,0,0,1-15.828,0,19.878,19.878,0,0,1-6.24-4.718,21.761,21.761,0,0,1-4.079-6.818A22.473,22.473,0,0,1,42.493,22.067ZM56.251,2.1a0.938,0.938,0,0,1,1.035-.73,0.853,0.853,0,0,1,.365.061,0.913,0.913,0,0,1,.609.548,1.245,1.245,0,0,1,.061.853,1.066,1.066,0,0,1-1.035.791,1.728,1.728,0,0,1-.974-0.639,0.847,0.847,0,0,1-.062-0.822V2.1Z" transform="translate(0 -0.758)"/><path class="cls-1" d="M90.892,43.8a1.042,1.042,0,0,1-1.035-1.035V2.219a0.914,0.914,0,0,1,.792-0.974,2.017,2.017,0,0,1,.639.091,0.831,0.831,0,0,1,.457.457L106.112,29.31,119.749,4.959a0.952,0.952,0,0,1,.852-0.487,0.705,0.705,0,0,1,.487.122,0.927,0.927,0,0,1,.487.578,0.993,0.993,0,0,1-.06.761l-14.55,26a0.822,0.822,0,0,1-.914.487,0.8,0.8,0,0,1-.852-0.487L91.865,6.359V42.765a1.048,1.048,0,0,1-.273.73A0.905,0.905,0,0,1,90.892,43.8Zm5.358,0a0.9,0.9,0,0,1-.7-0.305,1.049,1.049,0,0,1-.275-0.73V23.711a0.862,0.862,0,0,1,.975-0.975,1.055,1.055,0,0,1,.73.275,0.9,0.9,0,0,1,.3.7V42.765A1.039,1.039,0,0,1,96.25,43.8Zm10.471-23.013a1.007,1.007,0,0,1-.914-0.487L97.832,5.933a0.853,0.853,0,0,1-.122-0.761A1.162,1.162,0,0,1,98.2,4.533a1.984,1.984,0,0,1,.487-0.122,0.864,0.864,0,0,1,.853.548l8.035,14.307a0.862,0.862,0,0,1,.122.76,1.167,1.167,0,0,1-.487.64A2.024,2.024,0,0,1,106.721,20.788ZM128.454,43.8a1.042,1.042,0,0,1-1.035-1.035V6.177L109.765,38.5a0.984,0.984,0,0,1-.914.548,1.035,1.035,0,0,1-.487-0.182,0.922,0.922,0,0,1-.487-0.578A0.855,0.855,0,0,1,108,37.529l19.542-35.8a0.842,0.842,0,0,1,.487-0.4,2.326,2.326,0,0,1,.67-0.091,0.9,0.9,0,0,1,.73.974V42.765a1.055,1.055,0,0,1-.273.73A0.905,0.905,0,0,1,128.454,43.8Zm-5.115-2.07a0.921,0.921,0,0,1,.609.517,1.3,1.3,0,0,1,.062.884,0.938,0.938,0,0,1-1.035.73,1.465,1.465,0,0,1-.914-0.578,1.106,1.106,0,0,1-.122-0.882,1.058,1.058,0,0,1,1.035-.732A0.864,0.864,0,0,1,123.34,41.73Zm-0.365-1.339A0.861,0.861,0,0,1,122,39.416V23.711a0.861,0.861,0,0,1,.974-0.975,1.049,1.049,0,0,1,.73.275,0.9,0.9,0,0,1,.305.7V39.416a0.9,0.9,0,0,1-.305.7A1.049,1.049,0,0,1,122.975,40.391Z" transform="translate(0 -0.758)"/><path class="cls-1" d="M136.612,22.067a22.424,22.424,0,0,1,.76-5.785,22.735,22.735,0,0,1,2.192-5.387,21.289,21.289,0,0,1,3.5-4.6,18.485,18.485,0,0,1,4.686-3.409,0.71,0.71,0,0,1,.488-0.122,0.954,0.954,0,0,1,.852.487,0.934,0.934,0,0,1,.092.822,1.045,1.045,0,0,1-.518.578A18.652,18.652,0,0,0,144.4,7.79a18.385,18.385,0,0,0-3.166,4.14,20.418,20.418,0,0,0-1.949,4.87,20.963,20.963,0,0,0-.669,5.266,20.4,20.4,0,0,0,1.309,7.214,19.822,19.822,0,0,0,3.653,6.18,17.913,17.913,0,0,0,5.6,4.291,15.876,15.876,0,0,0,7.153,1.614,15.69,15.69,0,0,0,7.122-1.614,17.836,17.836,0,0,0,5.571-4.323A20.5,20.5,0,0,0,172.773,15.1a20,20,0,0,0-3.409-6.027A18.259,18.259,0,0,0,164.1,4.716a15.981,15.981,0,0,0-6.788-1.948V7.09a0.861,0.861,0,0,1-.974.974,11.281,11.281,0,0,0-5.115,1.156,12.011,12.011,0,0,0-3.926,3.1,14.463,14.463,0,0,0-2.5,4.444,15.435,15.435,0,0,0-.882,5.176,15.241,15.241,0,0,0,.882,5.113,14.1,14.1,0,0,0,2.527,4.444,12.406,12.406,0,0,0,3.926,3.1,11.084,11.084,0,0,0,5.085,1.157,11.274,11.274,0,0,0,5.113-1.157,12.522,12.522,0,0,0,3.958-3.074,13.754,13.754,0,0,0,2.526-4.413,15.421,15.421,0,0,0,.884-5.175,14.867,14.867,0,0,0-2.1-7.854,12.369,12.369,0,0,0-5.693-5.053,0.815,0.815,0,0,1-.517-0.518,0.905,0.905,0,0,1,.03-0.76,0.844,0.844,0,0,1,.914-0.609,0.871,0.871,0,0,1,.365.061,13.776,13.776,0,0,1,3.714,2.4,15.86,15.86,0,0,1,2.831,3.409,16.346,16.346,0,0,1,1.826,4.17,17.3,17.3,0,0,1,.64,4.749,16.965,16.965,0,0,1-1.065,5.965,16.5,16.5,0,0,1-2.952,5.053,14.166,14.166,0,0,1-4.566,3.5,13.253,13.253,0,0,1-5.9,1.309,12.823,12.823,0,0,1-5.875-1.339A15,15,0,0,1,145.9,32.9a15.692,15.692,0,0,1-2.952-5.053,17.213,17.213,0,0,1-1.035-5.9,17.5,17.5,0,0,1,.944-5.693,15.745,15.745,0,0,1,2.709-4.931,15.376,15.376,0,0,1,4.231-3.592,12.283,12.283,0,0,1,5.51-1.613V1.732a0.889,0.889,0,0,1,1.035-.974,17.46,17.46,0,0,1,7.914,1.8A20.431,20.431,0,0,1,170.46,7.3a21.86,21.86,0,0,1,4.078,6.788A22.2,22.2,0,0,1,176,22.067a22.439,22.439,0,0,1-1.462,8.005,21.757,21.757,0,0,1-4.078,6.818,19.923,19.923,0,0,1-6.24,4.718,18.623,18.623,0,0,1-15.829,0,19.887,19.887,0,0,1-6.24-4.718,21.731,21.731,0,0,1-4.079-6.818A22.472,22.472,0,0,1,136.612,22.067ZM150.37,2.1a0.937,0.937,0,0,1,1.035-.73,0.858,0.858,0,0,1,.365.061,0.913,0.913,0,0,1,.609.548,1.236,1.236,0,0,1,.06.853,1.063,1.063,0,0,1-1.034.791,1.732,1.732,0,0,1-.975-0.639,0.847,0.847,0,0,1-.06-0.822V2.1Z" transform="translate(0 -0.758)"/></svg>