<svg id="Layer_4" data-name="Layer 4" xmlns="http://www.w3.org/2000/svg" viewBox="0 0 100 32"><defs><style>.cls-1{fill:#7dc22b;}.cls-2{fill:#fff;}</style></defs><title>logo</title><path class="cls-1" d="M31.469,1.193a1.078,1.078,0,0,0-.76-0.762A22.526,22.526,0,0,0,25.569,0C19.137,0,15.28,3.45,12.4,8H5.908A3.275,3.275,0,0,0,3.237,9.655l-3.08,6.176A1.78,1.78,0,0,0,0,16.5,1.5,1.5,0,0,0,1.5,18H7.963l-1.4,1.4a2.04,2.04,0,0,0,0,2.828l3.171,3.182a2.027,2.027,0,0,0,2.821,0l1.4-1.4V30.5a1.5,1.5,0,0,0,1.5,1.5,1.775,1.775,0,0,0,.667-0.157l6.151-3.087a3.277,3.277,0,0,0,1.651-2.679V19.55C28.443,16.655,31.9,12.774,31.9,6.356A22.252,22.252,0,0,0,31.469,1.193ZM23.926,10.5A2.5,2.5,0,1,1,26.418,8,2.5,2.5,0,0,1,23.926,10.5Z" transform="translate(0 0)"/><path class="cls-2" d="M45.13,26.55V6.331h7.324a10.917,10.917,0,0,1,4.329.8A8.718,8.718,0,0,1,61.764,12.5a12.084,12.084,0,0,1,.625,3.916,11.883,11.883,0,0,1-.7,4.172,8.92,8.92,0,0,1-2,3.189,9.015,9.015,0,0,1-3.137,2.05,11.04,11.04,0,0,1-4.1.726H45.13ZM58.443,16.412a8.638,8.638,0,0,0-.4-2.677,6,6,0,0,0-1.164-2.107,5.183,5.183,0,0,0-1.888-1.367,6.355,6.355,0,0,0-2.54-.484H49.047V23.1h3.406a6.11,6.11,0,0,0,2.569-.513,5.253,5.253,0,0,0,1.874-1.41,6.277,6.277,0,0,0,1.149-2.121A8.541,8.541,0,0,0,58.443,16.412Z" transform="translate(0 0)"/><path class="cls-2" d="M71.982,26.835a8.233,8.233,0,0,1-3.236-.612A7.317,7.317,0,0,1,64.7,22.107a7.879,7.879,0,0,1-.553-2.933,8.326,8.326,0,0,1,.539-3,7.325,7.325,0,0,1,1.561-2.478A7.476,7.476,0,0,1,68.732,12a8.252,8.252,0,0,1,3.279-.626,8.048,8.048,0,0,1,3.25.626,7.5,7.5,0,0,1,2.441,1.68,7.144,7.144,0,0,1,1.533,2.449,8.183,8.183,0,0,1,.526,2.9q0,0.371-.014.712a3.018,3.018,0,0,1-.071.569h-11.5A4.436,4.436,0,0,0,68.6,21.88a3.879,3.879,0,0,0,.881,1.167,3.815,3.815,0,0,0,1.221.74,3.987,3.987,0,0,0,1.419.256,4.375,4.375,0,0,0,2.143-.555,2.931,2.931,0,0,0,1.376-1.467l3.265,0.911a6.654,6.654,0,0,1-2.626,2.805A8.125,8.125,0,0,1,71.982,26.835Zm3.861-9a3.973,3.973,0,0,0-1.236-2.692,3.866,3.866,0,0,0-5.265.015,3.922,3.922,0,0,0-.838,1.167,4.129,4.129,0,0,0-.383,1.51h7.721Z" transform="translate(0 0)"/><path class="cls-2" d="M87.708,26.835a11.493,11.493,0,0,1-3.663-.6,8.937,8.937,0,0,1-3.065-1.709l1.42-2.392A12.186,12.186,0,0,0,85.054,23.6a7.1,7.1,0,0,0,2.569.5,3.234,3.234,0,0,0,1.788-.427,1.377,1.377,0,0,0,.653-1.224,1.224,1.224,0,0,0-.766-1.167,16.689,16.689,0,0,0-2.5-.854q-1.448-.4-2.47-0.769a6.308,6.308,0,0,1-1.646-.839,2.879,2.879,0,0,1-.908-1.082,3.462,3.462,0,0,1-.283-1.467,4.644,4.644,0,0,1,.44-2.05,4.469,4.469,0,0,1,1.235-1.552,5.71,5.71,0,0,1,1.86-.982,7.529,7.529,0,0,1,2.313-.342,9.925,9.925,0,0,1,3.137.484,7.649,7.649,0,0,1,2.682,1.566L91.625,15.7a8.929,8.929,0,0,0-2.2-1.253,6,6,0,0,0-2.115-.4,3.058,3.058,0,0,0-1.618.4,1.389,1.389,0,0,0-.652,1.282,1.247,1.247,0,0,0,.156.655,1.374,1.374,0,0,0,.5.455,4.69,4.69,0,0,0,.894.384q0.553,0.186,1.377.385,1.532,0.4,2.626.8a7.146,7.146,0,0,1,1.788.911A3.243,3.243,0,0,1,93.4,20.5a3.643,3.643,0,0,1,.326,1.609,4.158,4.158,0,0,1-1.617,3.46A6.953,6.953,0,0,1,87.708,26.835Z" transform="translate(0 0)"/><path class="cls-2" d="M96.2,9.549V5.762H100V9.549H96.2Zm0,17V11.627H100V26.55H96.2Z" transform="translate(0 0)"/></svg>