<svg id="Layer_1" data-name="Layer 1" xmlns="http://www.w3.org/2000/svg" viewBox="0 0 626.598 59.765"><defs><style>.cls-1{fill:#09f;}</style></defs><title>decoration-line-blue</title><path class="cls-1" d="M559.09,45.28a25.153,25.153,0,0,1-5.16,1.96c-1.08.28-1.87,0.34-3.36,0.78-3.35,1.72,3.54-.39-2.29,2.22-1.51.58-2.46,0.92-3.11,1.13-0.66.19-1.03,0.26-1.37,0.34a10.712,10.712,0,0,0-1.22.33c-0.57.17-1.38,0.49-2.74,0.9a11.579,11.579,0,0,1,1.35-.62,41.43,41.43,0,0,1-5.72,1.34c-0.81.4,4.33-.43,0.13,0.59a17.809,17.809,0,0,1-2.51.38,21.335,21.335,0,0,0-3.31.42c1.13,0.04-.49.54-2.53,0.76a24.048,24.048,0,0,1-4.76.27c0.61-.19,1.9-0.21,4.4-0.48-0.03-.18-0.01-0.36-0.55-0.45a7.264,7.264,0,0,0-1.29-.05c-0.62,0-1.45-.02-2.57.02-0.57.22,2.17,0.26,0.01,0.36a16.355,16.355,0,0,1-5.72-.56,19.491,19.491,0,0,0,4.27.11,17.6,17.6,0,0,1-3.11-.41c-0.81-.17-1.52-0.36-2.47-0.6-1.24-.08-0.61.16-0.52,0.31,0.1,0.12-.37.26-3.77-0.52,0.24-.09,2.53.31,0.08-0.35-0.08.26-3.81-.98-4.16-0.95,2.04,0.71,2.66.95,2.42,1.04a7.774,7.774,0,0,1-2.62-.47,30.714,30.714,0,0,1-6.33-3.46c-1.72-.91-2.35-1.25-2.87-1.52a12.672,12.672,0,0,1-2.03-1.37c-1.04-.44-0.05.26,1.15,1.02s2.64,1.54,2.32,1.52a15.032,15.032,0,0,1-3.81-2.04c-0.01-.24.36-0.21-2.12-1.97-1.28-.97-1.36-0.8-1.52-0.77s-0.45-.06-1.99-1.74c-0.49-.24-0.02.31,0.58,0.91a6.619,6.619,0,0,1,1.27,1.36c-1.06-.89-1.64-1.23-2.32-1.81a19.759,19.759,0,0,1-3.06-3.08c1.03,0.68-1.1-1.75-.47-1.49a55.67,55.67,0,0,1-5.53-8.33,6.153,6.153,0,0,0-.29-1.28c-0.12-.41-0.26-0.83-0.45-1.31a19.134,19.134,0,0,1-1.14-4.29c0.61,0.83.34-1.86,0.59-4.24,0.25-.55.3,2.49,0.62,1.36-0.02-3.42.07-3.51-.1-3.37-0.06.07-.14,0.19-0.16-0.02a4.654,4.654,0,0,1,.01-0.63c0.02-.34.04-0.76,0.15-1.52,0.58-1.37.54-3.48,0.65-6.52-0.15.63-.19-0.2-0.38-1.25a15.314,15.314,0,0,0-.34-1.54,1.679,1.679,0,0,0-.35-0.74,15.7,15.7,0,0,1,.26,5.22,14.437,14.437,0,0,0-.85-5.92,6.79,6.79,0,0,0-1.81-2.59A6.653,6.653,0,0,0,473.5.2L472.78,0l-0.79.48c-0.97.59-2.03,1.23-3.25,1.98-3.61,2.42-2.7,2.39-5.99,4.61,0.25-.49-0.45-0.25-1.59.31-2.39,1.59-5.45,3.47-4.89,3.49,0.22,0.1,3.3-1.94,2.74-1.28-3.92,2.52-7,4.43-10.29,6.2-0.07.2-.23,0.49-2.49,1.68-1.25.3,1.7-1.29,1.02-1.25-3.85,2-3.64,1.43-9.46,4.45-0.25.23,0.07,0.23-1.23,0.87-1.34.3-2.9,1.66-5.32,2.67a9.123,9.123,0,0,0-2.38.93c-1.21.57-2.33,1.07-1.67,0.97,5.82-2.23,5.27-2.67,8.23-3.5-0.15-.15.91-0.76,2.53-1.62,0.03,0.28,6.77-3.6,6.8-3.12-0.82.45-5.23,2.42-5.3,2.79,2.2-.98.56-0.05-1.83,1.13-1.19.61-2.57,1.26-3.73,1.8-1.16.56-2.1,1-2.42,1.16-3,1.02-4.16,1.46-8.4,3.09,0.04-.23-0.44-0.25-1.56.01,1.93-.65,3.11-0.97,4.24-1.35,0.43-.59-1.94.21-4.49,1.08-1.26.48-2.6,0.87-3.61,1.27a9.178,9.178,0,0,0-1.8.79c-1.84.42-2.02,0.38-4.35,0.89-0.21.22,0.61,0.33-1.35,0.75a5.768,5.768,0,0,0-1.52.18c-0.81.11-1.85,0.26-2.89,0.41-0.25-.11.21-0.37-1.51-0.16a3.5,3.5,0,0,1-1.47.12l-0.02-.24a16.6,16.6,0,0,0,2.5-.18,2,2,0,0,0-1.04-.06c2-.28,3.19-0.48,4.34-0.73,0.17,0.13-2.09.5,0.04,0.24a34.055,34.055,0,0,1,4.29-.98c0.07-.18-0.83-0.05-2.2.15-0.68.12-1.49,0.26-2.35,0.41-0.87.12-1.79,0.24-2.72,0.36,0.1,0.1-.41.24-1.25,0.4-0.84.13-2.02,0.22-3.24,0.34-1.22.14-2.5,0.13-3.54,0.2a19.609,19.609,0,0,0-2.16.19c1.37,0.14,5.42-.09,4.42.27-1.69.03-3.21,0.17-4.64,0.19-1.42,0-2.75.06-4.03,0.02-1.28-.06-2.51-0.14-3.75-0.26-1.23-.2-2.47-0.44-3.75-0.77a1.392,1.392,0,0,0,.7.54c0.07,0.06.02,0.1-.31,0.1a10.943,10.943,0,0,1-1.97-.22c-1.14-.29-2.37-0.53-3.54-0.88s-2.31-.72-3.37-1.05a21.642,21.642,0,0,1-4.27-1.98,24.342,24.342,0,0,1,2.96,1.04c0.48,0.2.95,0.39,1.4,0.54a5.6,5.6,0,0,0,1.24.22c-0.41-.13-0.82-0.26-1.21-0.39-0.38-.15-0.75-0.3-1.09-0.45-0.69-.29-1.31-0.55-1.79-0.78,1.23,0.42,2.22.76,3.01,1.04,0.81,0.23,1.41.41,1.86,0.55a2.751,2.751,0,0,1,1.23.55c0.11,0.2-.71.21,0.71,0.74,1.65,0.06,2.53-.06,4.5.07a25.239,25.239,0,0,1-7.26-2.13c-0.56-.25-1.03-0.47-1.75-0.8s-1.77-.63-3.4-1.21c2.79,1.08,2.88,1.07,2.19.88s-2.13-.65-2.28-0.66a28.013,28.013,0,0,1,2.68,1.12c-2.78-.92-3.14-1.09-3.2-1.01s0.25,0.32-1.04-.14a5.643,5.643,0,0,1-1.09-.75c-0.35-.22-0.95-0.59-2.68-1.48-0.64-.3-1.24-0.53-1.79-0.82s-1.08-.58-1.65-0.88c-0.56-.32-1.19-0.63-1.86-1.07-0.65-.46-1.39-0.98-2.24-1.62,0.52,0.72-.8-0.01-2.2-1.28-0.71-.62-1.53-1.27-2.17-1.89a15.025,15.025,0,0,0-1.46-1.35,9.451,9.451,0,0,0-1.31-1.65,16.728,16.728,0,0,1-1.44-1.92c0.65,0.69,1.35,1.55,2.12,2.36s1.57,1.62,2.29,2.37a11.669,11.669,0,0,0,3.11,2.34c-1.67-1.5-2.82-2.35-3.65-3.27a15.639,15.639,0,0,1-2.44-3c0.86,1.07,5.79,5.91,3.18,3.03a6.15,6.15,0,0,1-1.09-1.02,28.688,28.688,0,0,1-1.9-2.16c0.23,0.54-.41-0.08-1.24-0.94a19.276,19.276,0,0,0-2.34-2.18c-0.38-.24.22,0.49,0.39,0.82,0.09,0.17.09,0.23-.16,0.02s-0.73-.71-1.77-1.55a6.97,6.97,0,0,0-2.79-1.81,14.44,14.44,0,0,0-3.42-.67,8.369,8.369,0,0,1,3.02.34,11.01,11.01,0,0,1,1.45.54c0.56,0.25.47,0.15,0.09-.11a8.412,8.412,0,0,0-1.68-.86,2.527,2.527,0,0,1-1.02-.44,8.53,8.53,0,0,1,3.53,1.33,17.74,17.74,0,0,1,2.62,2.12c0.23,0.03,1.09.65,1.11,0.44a3.012,3.012,0,0,0-.84-1.11,15.038,15.038,0,0,0-1.47-1.3,10.866,10.866,0,0,0-2.9-1.58c1.24,0.69,1.31.94,0.89,0.77a13.076,13.076,0,0,0-2.89-.85,10.068,10.068,0,0,0-4.38.33,11.386,11.386,0,0,0-2.69,1.17c0.77-.32.1,0.13-0.34,0.54s-0.69.75,0.74,0.2A21.217,21.217,0,0,0,332.69,10c-4.43,3.19-3.82,2.27-7.64,4.81-1.44,1.41,4.07-1.91.46,0.7,0.61-.69-1.84.99-4.54,2.72s-5.7,3.43-5.91,3.19c1.61-1.07,5.6-3.32,8.94-5.5-1.13.09,4.23-3.39,5.73-4.88,0.27-.02-0.01.43,1.44-0.56-0.42.02,1.25-1.21,0.98-1.28-1.71.83-4.45,2.6-7.75,4.6,0.88,0.05.52,0.79-4.71,3.68-0.61.57,1.82-.37-0.97,1.28-3.72,1.82-1.12.86-3.77,2.45a76.526,76.526,0,0,0-7.87,4.33c-3.47,1.42-4.24,2.01-5.52,2.32,1.27-.85-2.8.83-6.3,1.96-3.51,1.1-6.36,1.91-2.36.34-0.9.2-1.66,0.42-2.33,0.62-0.67.18-1.26,0.37-1.79,0.55-1.06.37-1.92,0.78-2.95,1.07,0.38-.24-1.11-0.14-3.22.16-1.06.11-2.28,0.26-3.5,0.45-1.23.17-2.46,0.3-3.55,0.51,1.34-.12,2.59-0.16,3.79-0.3s2.37-.26,3.55-0.4a8.134,8.134,0,0,1-2.15.61c-0.57.12-1.22,0.25-1.89,0.38-0.68.1-1.38,0.2-2.07,0.3s-1.34.2-1.93,0.29c-0.59.07-1.11,0.13-1.52,0.2-0.81.13-1.14,0.26-.59,0.39-0.74.06-1.48,0.13-2.22,0.17l-2.22.06c-0.25.19,0.54,0.43-1.48,0.52-1.4-.37-2.22-0.51-2.96-0.68-1.52.04-2.55-.01-3.43,0.03-0.88.02-1.62,0.1-2.54,0.08,0.01-.22-4.09-0.65-4.37-0.94,1.34,0.07,5.98.77,4.48,0.11-4.73-.74-5.19-0.82-5.18-0.64,0.01,0.16.51,0.45-2.21-.09-4.25-1.39-3.64-1.72-9.55-4.04-0.32-.04-0.81-0.12-1.43-0.26a13.272,13.272,0,0,1-2.21-.65c-0.84-.31-1.78-0.69-2.79-1.17-0.98-.54-2.02-1.17-3.09-1.89,1.41,0.78,3.16,1.6,1.4.53-1.83-.57-3.67-2.47-1.15-0.94-0.84-.5-1.62-1.08-2.44-1.62l-1.21-.82-1.15-.9c-0.04.23-.48,0.09-1.45-0.53,0.68,0.54,1.5,1.19,2.17,1.73a7.911,7.911,0,0,1,1.3,1.02c-2.29-1.17,1.18,1.3-1.58-.34-2.41-1.97-2.37-2.1-.96-1.21-3.12-2.39-6.02-4.66-7.66-7a5.289,5.289,0,0,1,1.65,1.5c0.33,0.37.67,0.75,0.94,1.05a2.227,2.227,0,0,0,.66.5c-0.39-.45-0.81-2.01-0.71-1.38-0.39-.01-1.53-1.16-2.67-2.6-1.08-1.5-2.27-3.17-2.86-4.2a7.37,7.37,0,0,0-1.57-2.03L213,7.25l-0.59.71a7.07,7.07,0,0,1-1.46,1.21c-2.52,1.46-4.92,3.55-8.64,6.05-2.49,1.66-1.77.8-5.16,3.12,0.75,0.16,7.23-3.33,2.12.49-1.69.93-6.26,3.95-6.56,3.75a47.321,47.321,0,0,1,4.97-3.43c1.05-1.36-3.54,1.62-5.54,2.52,0.03,0.18.74-.15,1.47-0.49a225.182,225.182,0,0,1-19.57,11.2c1-.9-1.37.16-2.98,0.68,2.53-1.13.68-.74,2.53-1.67l-4.14,2.09a31.7,31.7,0,0,1-3.98,1.7,17.936,17.936,0,0,0,2.52-.41c0.82-.22,1.78-0.49,3.41-0.94a24.653,24.653,0,0,1-4.05,2.05,22.647,22.647,0,0,1-4.38,1.21c3.33-1.1,6.18-2.02,6.99-2.79a15.632,15.632,0,0,1-4.05,1.4,16.55,16.55,0,0,0-3.13.82,20.206,20.206,0,0,1-5.25,2.19,31.233,31.233,0,0,1-3.65.94,14.362,14.362,0,0,1-2.56.38c2.77-.59,2.9-0.79,1.91-0.65-0.5.05-1.27,0.23-2.15,0.37s-1.86.34-2.76,0.57c0.45-.31-0.36-0.26-1.26-0.24-0.91-.01-1.9,0-1.8-0.2,2.29-.25.97-0.46-0.01-0.12,0.17,0.09-.16.2-0.78,0.32a17.522,17.522,0,0,1-2.57.31c-1.02.07-2.12,0.14-3.1,0.21-0.98.03-1.85,0.04-2.39,0.09,4.36,0.15-1.94.28-.01,0.6,0.94,0,1.7,0,2.33-.02,0.63-.05,1.14-0.09,1.57-0.12a7.023,7.023,0,0,1,2.09.09c-2.21.17-3.77,0.41-6,.4,4.19-.14-3.66-0.51-4.49-0.43a28.263,28.263,0,0,1,2.99.42c-1.88-.05-3.06-0.13-3.93-0.17a5.425,5.425,0,0,1-2.06-.41,10.742,10.742,0,0,0,2.43.01c0.51-.06.71-0.17,0.61-0.33-1.84-.12-3.14-0.31-4.03-0.4a6.723,6.723,0,0,0-1.59-.04c-0.42.1,0.27,0.4,1.08,0.67-2.11-.3-3.06-0.51-3.95-0.63-0.44-.07-0.87-0.13-1.41-0.22a14.825,14.825,0,0,1-2.05-.49c-1.56-.59-3.11-1.03-4.89-1.7a65.617,65.617,0,0,1-6.37-2.54c-0.35-.37-1.78-1.21-1.1-1.13,0.62,0.32,1.19.63,1.75,0.9,0.57,0.23,1.09.44,1.57,0.64a21.219,21.219,0,0,0,2.18.76,22.122,22.122,0,0,0-3.23-1.49,7.577,7.577,0,0,1-2.1-1.12c2.27,1.22,2.32,1.04,2.08.87-0.23-.19-0.7-0.48.72,0.12,1.35,0.59,1.57.79,2.65,1.29,0.75,0.11.01-.24-1.2-0.79-0.61-.26-1.33-0.58-2.06-0.89s-1.4-.72-1.97-1.02c-1.19-.46-0.76-0.12-0.75-0.07a1.574,1.574,0,0,1-.55-0.28c-0.23-.13-0.56-0.3-0.99-0.56-0.42-.28-0.95-0.65-1.64-1.11,0.07,0.4.73,1.11,0.51,1.17a3.005,3.005,0,0,1-1.2-.51c-0.38-.21-0.85-0.48-1.46-0.84-0.59-.39-1.27-0.91-2.1-1.53-0.1-.25.41-0.11-0.96-1.2-2.1-1.73-2.08-2.11-2.03-2.43a0.756,0.756,0,0,0-.12-0.64,4.563,4.563,0,0,0-.48-0.63c-0.22-.29-0.51-0.65-0.92-1.1,0.3,1.11-2.32-2-2.84-3.32,0.12,0.66-1.78-2.03-1.35-.85,0.5,0.71,1.11,1.57,1.61,2.28a14.387,14.387,0,0,1,.98,1.34c-0.29-.23-0.61-0.48-0.97-0.81-0.33-.35-0.7-0.78-1.14-1.32,0.17-.02-0.49-1.01-1.27-2.14l-0.39-.57-0.44.54c-0.71.87-1.48,1.84-2,2.42-0.54.56-.82,0.74-0.47,0.08-0.98,1.09-1.64,1.87-2.19,2.43s-0.97.95-1.37,1.35-0.82.79-1.42,1.3-1.33,1.22-2.49,2.12a4.534,4.534,0,0,1-.57,1.21,16.6,16.6,0,0,1-3.62,3.12c-0.61.21-.22-0.15,0.24-0.55s0.94-.89.62-0.81c-4.86,3.22-2.34,2.04-4.74,3.65-3.99,2.14-8.84,5.01-12.06,5.99-0.05-.15,2.37-1.13,2.65-1.4-2.38.93-3.41,1.37-4.2,1.72s-1.28.7-2.66,1.3c-2.11.4-5.05,1.45-8.01,2.37a39.981,39.981,0,0,1-7.92,1.86c2.03-.45,1.48-0.62-1.51.07-1.48.77,3.72-.42,3.09,0.08-2.58.6-3.32,0.91-2.85,1.1a116.87,116.87,0,0,1-11.89,2.12c-0.18.25-.93,0.53-2.94,0.86-0.38-.13-2.5.09-3.05-0.01a34.639,34.639,0,0,0,4.48-.66c-3.21.25-9.59,0.68-12.02,1.24,4.97-.36,6.1-0.02,1.57.59a25.887,25.887,0,0,0-4.54.12c-3.54.6,2.93,0.24,0.04,0.6-5.85.34-5.38,0.21-9.06,0.66,1.68-.26,1.61-0.37-1.53-0.29,1.09,0.26-6.63.78-1.48,0.79,0.83-.28,5.86-0.12,4.56.26,2.61-.09,3.87-0.4,4.54-0.26-0.87.33-2.29,0.72,3.07,0.39-3.86-.34,4.82-0.64,6.07-0.5,2.41-.31-0.4-0.54,4.5-0.93-2.7.5,1.8,0.28,3.11,0.36,3.73-.62,10.39-1.71,16.65-2.74,3.16-.73,8.04-1.98,12.63-3.44,4.6-1.42,8.88-3.09,11.1-3.74a43.943,43.943,0,0,0,4.51-2.57c0.65-.4,1.33-0.82,2.1-1.33s1.7-1.04,2.79-1.77c0.21,0.03-1.83,1.37.13,0.2,1.05-1,4.69-2.9,6.54-4.4,0.5-.41,1.14-0.99,1.85-1.64s1.52-1.35,2.28-2.1c1.57-1.44,3-3,3.95-3.82-0.49.29,0.03-.34,0.74-1.23,0.36-.44.78-0.93,1.16-1.39s0.69-.92.89-1.22c0.39-.14-0.89,1.57-0.61,1.54,0.99-1.31,1.69-2.23,2.24-2.96l-5.11-.18a31.688,31.688,0,0,1,2.34,3.62c-0.06-.32.17-0.03,0.7,0.48,0.51,0.52,1.25,1.33,2.03,2.2a27.249,27.249,0,0,0,2.51,2.44,13.249,13.249,0,0,0,1.82,1.5c-0.68-.58-1.29-1.28.08-0.09-0.01.24,3.16,2.58,2.31,2.25a16.338,16.338,0,0,0,1.94,1.39c0.6,0.38,1.13.73,1.62,1.04a20.738,20.738,0,0,0,2.58,1.4c0.77,0.37,1.48.7,2.26,1.08,0.8,0.33,1.68.7,2.79,1.16,3.51,1.7-1.78-.29,1.28,1.08a18.123,18.123,0,0,1,3.23.87c0.41,0.14.85,0.28,1.32,0.43,0.47,0.12.96,0.25,1.46,0.39,1,0.27,2.05.54,3.08,0.82,4.17,0.94,8.19,1.38,7.89,1.07,1.54,0.3,2.15.39,3.04,0.59a21.138,21.138,0,0,0,4.76.38c0.77-.05,1.55-0.11,2.33-0.16,0.78-.1,1.57-0.19,2.37-0.29,1.76-.06,2.45.01,3.15,0.03,1.29-.16,2.36-0.29,3.28-0.41s1.67-.31,2.35-0.43c1.35-.26,2.41-0.37,3.71-0.51a141.545,141.545,0,0,0,14.93-4.44c0.47-.29,1.39-0.75,2.61-1.33s2.75-1.24,4.36-2.04c8.83-3.6,17.81-8.49,29.34-16.51a34.14,34.14,0,0,1,4.82-3.71c0.32,0-.19.67,1.52-0.46-0.31-.14,1.87-1.73,3.79-3.17l-4.41-.96c0.62,0.88,1.22,1.71,1.66,2.26-0.39.18,2.95,4.84,5.79,7.68a2.885,2.885,0,0,1,1.3.96,47.369,47.369,0,0,0,8.59,7.11c0.24-.04.51,0.09,2.84,1.45-0.35-.05.27,0.4,1.33,1.06s2.63,1.39,4.06,2.13c2.93,1.31,5.45,2.32,2.9,1.53,0.5,0.2.98,0.4,1.44,0.58s0.92,0.31,1.36.45c0.87,0.27,1.68.53,2.43,0.77,1.52,0.44,2.89.7,4.21,1,2.66,0.51,5.22.91,9.03,1.38a15.78,15.78,0,0,0,3.13.31c-1.97-.22-3.18-0.45-3.09-0.67,1.37,0.1,2.78.21,4.07,0.31,1.29,0.12,2.46.12,3.34,0.21,1.75,0.14,2.35.33,0.39,0.52a25.671,25.671,0,0,0,3.32,0c0.8-.04,1.33-0.09,1.77-0.15,0.88-.1,1.36-0.31,2.74-0.46a17.373,17.373,0,0,0,3.86-.52c0.73-.21,1.47-0.3,3.83-0.69-2.58,1.09,1.01-.18,1.62.19,6.34-1.27,5.9-1.45,10.58-2.62-0.4-.26-0.36-0.52,4.22-2.03a32.716,32.716,0,0,1,4.5-1.19,45.543,45.543,0,0,0,4.8-2.12c1.17-.57,2.14-1.11,3.56-1.86a60.773,60.773,0,0,0,6.88-3.45c-0.52.45,1.22-.45,2.57-1.19,1.32-.77,2.25-1.37.17-0.22-1.76.99-1.87,0.68-.18-0.31,3.97-2.41,1.61-.2,5.55-2.68,0.69-.87,1.19-1.59,4.67-4.06,0.01,0.18-1.54,1.22-1.07,1.15,1.93-1.23,4.62-3.25,5.11-3.37-2.1,1.55-1.22.95-.08,0.18s2.41-1.57,1.48-.73a12.231,12.231,0,0,1,4.9-2.38,4.508,4.508,0,0,1,1.81.13c0.49,0.15.9,0.31,1.09,0.36-0.69-.39-0.66-0.41-0.24-0.24a6.944,6.944,0,0,1,2.12,1.56c0.16-.08-0.25-0.62-0.69-1.08,0.74,0.65,1.16,1.08,1.44,1.33a2.275,2.275,0,0,0,.52.38c0.25,0.14.49,0.22,1.97,2.13a12.987,12.987,0,0,0-1.84-1.59c-0.33-.21-0.62-0.39-1.57-0.99,0.94,0.91,1.67,1.78,2.3,2.46s1.14,1.25,1.67,1.73c1.08,0.95,1.9,1.73,3.51,3.21L352,20.7c1.46,1.31,2.42,2.29,3.25,2.92,0.82,0.65,1.39,1.1,1.93,1.53a49.1,49.1,0,0,0,4.88,3.42c1.36,0.45-4.36-2.94-3.77-2.97a22.24,22.24,0,0,0,5.52,3.08c1.55,0.84,2.09,1.3,2.7,1.65a18.493,18.493,0,0,0-2.34-.93,6.793,6.793,0,0,0,2.13,1.36,13.515,13.515,0,0,1,2.17.73c0.74,0.32,1.49.69,2.27,0.98a20.345,20.345,0,0,0,4.49,1.52c-1.18-.34-1.73-0.62-1.44-0.67,6.88,2.14,2.91.38,7.71,1.46,0.11,0.35,5.07.9,4.56,1.11-5.55-.94-3.12.08-0.06,0.48a3.534,3.534,0,0,1,1.17-.01c0.63,0.03,1.43.07,2.22,0.11s1.55,0.07,2.1.04c0.55-.05.89-0.14,0.81-0.3-1.84-.12-3.51-0.41-4.63-0.59,2.1,0.11,2.96.17,6.2,0.28,0.25-.13-0.25-0.35,1.55-0.31,2.64,0.39-2.13.84,3.12,1.02-2.69.15-4-.14-4.69,0.01,1.62,0.09,2.45.14,2.66,0.18s-0.22.16-1.09,0.22c2.14,0,2.93-.11,3.57-0.14,0.64-.05,1.14-0.03,2.7-0.08,0.97-.36.24-0.44-0.94-0.46s-2.85-.09-3.77-0.18c1.19,0.03,2.16.04,2.96,0.04s1.43-.09,1.94-0.14a10.145,10.145,0,0,0,2.03-.4,23.815,23.815,0,0,1,5.33-1.2c0.18,0.14.25,0.3-.32,0.51a26.309,26.309,0,0,1-4.2.73c1.09,0.02.07,0.34-.72,0.51-0.79.19-1.33,0.33,0.8,0.2,2-.42,3.15-0.6,4.38-0.8,1.22-.27,2.54-0.5,4.8-1.12,1-.39.01-0.25-0.75-0.16-0.77.05-1.29,0.14,0.65-.31,1.52-.07,4.38-0.58,6.16-0.88,4.46-1.52-4.16.82-.14-0.46a96.376,96.376,0,0,0,14.59-4.98c-0.5-.07.15-0.57,2.6-1.7,1.9-.49,1.28-0.06-1.1,1.29a25.484,25.484,0,0,0,4.67-2.42c0.68-.48.93-0.79,1.98-1.46a18.592,18.592,0,0,0,2.83-1.2c-0.58.05-.1-0.34,1.08-1.07s3.08-1.78,5.34-3.07c-0.51-.03.11-0.56,2.38-1.96-0.18.37,1.61-.65,1.55-0.37-1.68,1.15-3.84,2.52-5.07,3.4,4.7-2.68-2.61,1.96,1.5-.45q1.635-1.305,4.99-3.54c0.01,0.18-1.58,1.16-1.11,1.1,5-3.11,4.53-2.95,7.8-4.71,0.12-.29-0.69-0.08,1.02-1.23,1.61-.49,2.98-1.73,5.34-2.89,1.72-1.21-.06-0.51,2.26-2.06,0.86-.6,1.5-1.01,1.92-1.27l-1.67.35a1.052,1.052,0,0,1,.55.29,0.326,0.326,0,0,1,.12.23,1.518,1.518,0,0,0,.29.69,2.973,2.973,0,0,0,.39.34,0.125,0.125,0,0,0,.15-0.1c0.05-.12.09-0.31,0.37,0.34a17.2,17.2,0,0,1,.19,3.95c-0.04.67-.09,1.39-0.21,2.26-0.05.43-.13,0.91-0.22,1.43-0.05.26-.1,0.54-0.15,0.83-0.05.32-.11,0.66-0.16,1.02a42.246,42.246,0,0,0,.8,9.72c-0.15.53-.63-2.11-0.8-3.17a27.806,27.806,0,0,0,.69,4.63c0.11,0.44.22,0.88,0.33,1.33l0.42,1.32c0.26,0.89.64,1.72,0.97,2.54,1.39,3.23,3.13,5.46,3.27,5.14-1.31-2.13-2.04-3.59-2.57-4.66a7.6,7.6,0,0,1-.81-2.54c0.37,1.02.64,1.72,0.87,2.22,0.25,0.49.43,0.81,0.6,1.09,0.33,0.57.64,0.97,1.39,2.35,0.92,1.77,1.23,2.56,1.6,3.41a10.106,10.106,0,0,0,.72,1.44,16.557,16.557,0,0,0,1.53,2.17,35.1,35.1,0,0,1,2.69,2.66c1.28,1.29,2.69,2.55,3.03,2.89,1.79,1.29.46-.17,2.81,1.54,1.01,0.7,1.73,1.2,2.29,1.59s0.94,0.68,1.3.94a18.644,18.644,0,0,0,2.93,1.88c0.32-.2,2.23.69,5.96,2.1-1.21-.13.91,0.78,3.43,1.54,2.51,0.8,5.45,1.3,5.53,1.53a46.936,46.936,0,0,0,7.03.37c2.53-.11,5.05-0.18,7.15-0.3,0.36-.19,2.35-0.51,4.56-1.01,2.23-.39,4.65-1.07,6.07-1.21,0.53,0.22-5.84,1.34-4.45,1.42a74.128,74.128,0,0,0,17.6-5.69,11.757,11.757,0,0,1-.99.79c-0.11.15,0.4,0.07,2.63-.83,0.65-.33,1.33-0.66,2.05-1.03s1.5-.78,2.36-1.22,1.83-.91,2.9-1.47,2.28-1.13,3.61-1.85c2.17-1.5-1.74.45,1.07-1.24,4.6-2.25-2.7,2.26,3.02-.82,0.25-.25-0.08-0.23,1.21-0.95,1.84-.44,4.48-2.66,7.81-4.7,1.34-.65,2.68-1.35,4.07-2.06,3.1-2.07-2.88,1.24.97-1.3,3.55-2.27-.66,1.18,2.89-1.09a3.977,3.977,0,0,1,.68-0.61l-2.82-.9c0.74,1.37,1.79,3.8,2.35,4.91,0.62,0.68,1.55,1.96,3.03,3.69,0.23,0.63-1.7-1.66-.28.23A45.1,45.1,0,0,0,594.57,49c-0.69-.36.64,0.83,2.18,1.92a13.756,13.756,0,0,0,2.96,1.77c-1.59-1.12-2.15-1.77-1.67-1.68s2,0.92,4.9,2.27c-1.87-.66-0.99-0.19.65,0.48,0.81,0.36,1.85.68,2.78,1.01,0.96,0.27,1.82.55,2.35,0.68-0.51.08,1.92,0.86,2.89,1.18a9.276,9.276,0,0,1-2.04-.18,18.684,18.684,0,0,1-2.58-.71c2.78,1-.91-0.09,1.41.74a21.1,21.1,0,0,1,3.05.85c2.78,0.41,1.29-.53,1.79-0.82,1.64,0.24,2.43.12,2.23-.04a16.434,16.434,0,0,0-3.62-.77c1.14,0.34,2.94.61,2.96,0.75-2.06-.39-3.3-0.64-4.5-0.9,0.24-.25.99-0.3,3.13,0.02,1.25,0.25,2.02.4,2.58,0.52s0.89,0.25,1.27.34a16.39,16.39,0,0,0,5.13.41c0.08-.19-0.39-0.33-1.01-0.46s-1.4-.31-1.97-0.47a41.87,41.87,0,0,1-13.21-2.51l0.18-.45c-1.01-.41-1.78-0.73-2.42-1.01s-1.18-.49-1.7-0.74-1.06-.46-1.67-0.81a21.653,21.653,0,0,1-2.26-1.37c0.3-.08,1.02.23,2.79,1.16a22.456,22.456,0,0,0,4.6,2.24c1.66,0.64,3.6,1.26,6.39,2.1,1.09-.01-0.12-0.36-1.48-0.81s-2.87-1.05-2.54-1.15a51.167,51.167,0,0,1-5.29-1.94,29.124,29.124,0,0,1-6.47-3.91c0.46,0.17.27-.73-0.91-1.2,0.25,0.77-3.03-2.14-4.52-3.75,0.04-.15-1.07-1.55-0.66-1.36a17.243,17.243,0,0,0,1.68,2.08,6.611,6.611,0,0,0,1.34,1.08c-0.4-.39-0.75-0.74-1.08-1.06-0.31-.33-0.58-0.65-0.83-0.93a15.945,15.945,0,0,1-1.23-1.56c-0.36-.47-0.68-0.94-1.02-1.47s-0.73-1.1-1.17-1.83c0.28,0.8.3,1.04-.01,0.69a18.671,18.671,0,0,1-1.93-2.94c0.36,0.34,1.18,1.73,1.11,1.07-0.66-1.26-.98-1.93-1.2-2.32a4.468,4.468,0,0,0-.53-0.72l-0.97-1.24-0.71.71a10.6,10.6,0,0,1-1.97,1.38c-1.57.77-1.64,0.66-.25-0.41-0.85.53-1.71,1.06-2.56,1.58-0.11-.02-0.27,0-1.35.69-0.07.21-.23,0.49-2.44,1.77-0.41.7,3.62-1.83,4.17-1.84-3.52,2.62-3.32,2.06-9.04,5.42-1.05-.25-6.76,3.24-12.23,5.75a25.862,25.862,0,0,1-5.27,2.83c0.46-.41-2.16.57-0.14-0.33A22.672,22.672,0,0,0,559.09,45.28Zm39.05,4.02c-2.56-1.77-3.37-2.37-3.87-2.52a2.845,2.845,0,0,1-1.45-.55c-1.8-1.81-1.88-2.16-1.73-2.18,0.17-.03.65,0.18,0.22-0.63,3.42,3.42,2.94,2.19,4.82,3.55,1.94,1.52,1.93,1.59,1.67,1.56S597.02,48.36,598.14,49.3Zm-7.18-5.54c-0.38-.32-0.98-0.96-1.48-1.45-0.48-.5-0.84-0.88-0.79-0.63-0.72-1-1.44-2.03-2.54-3.83C586.47,37.93,588.36,41.01,590.96,43.76ZM110.24,39.41c-0.23-.21.08-0.14,0.66,0.08,0.29,0.12.65,0.26,1.05,0.42,0.41,0.14.86,0.29,1.31,0.45-0.31,0,.54.31,1.45,0.63A23.186,23.186,0,0,1,110.24,39.41Zm-5.71-5.85c-0.5-.35-1-0.71-1.59-1.13s-1.31-.84-2.11-1.5a2.918,2.918,0,0,1,.9.47c0.44,0.24.96,0.57,1.44,0.9C104.13,32.95,104.93,33.59,104.53,33.56Zm85.43-9.57c-0.74.23-.05-0.24,1.11-0.95s2.76-1.72,3.89-2.42C194.76,20.99,192.92,22.25,189.96,23.99Zm45.37,3.94c2.86,1.34,2.46,1.4,2.51,1.64-1.08-.55-1.28-0.76-2.62-1.42Zm243.6-10.14c-0.04-.73-0.03-1.46-0.21-1.42,0.06-.7.17-1.38,0.25-1.95s0.15-1.05.21-1.5a25.594,25.594,0,0,0,.28-2.77c0.07,0.88.11,1.71,0.28,1.65C479.52,14.68,479.13,15.24,478.93,17.79ZM492.9,45.61a1.746,1.746,0,0,1,1.09.96A1.551,1.551,0,0,1,492.9,45.61ZM478.39,19.16c0.05-.37.07-0.11,0.08,0.28a9.938,9.938,0,0,1,.05,1.12C478.5,21.29,478.32,19.55,478.39,19.16Zm27,33.75c-0.19.22-1,.01-2.36-0.62-1.37-.6-3.28-1.59-5.65-2.94a2.963,2.963,0,0,1,1.05.34c0.46,0.19,1.01.47,1.66,0.82A45.751,45.751,0,0,0,505.39,52.91ZM478.55,14.86c-0.23.17,0-1.92-.28-1.6a10.24,10.24,0,0,1,.51-2.61C478.88,10.71,478.98,11.98,478.55,14.86Zm15.23,32c-0.58-.5.94,0.5,1.26,0.74C495.62,48.07,494.08,47.13,493.78,46.86ZM281.51,33.61c0.02-.12,1.77-0.41,2.88-0.72A13.808,13.808,0,0,1,281.51,33.61Zm17.43-4.14-0.09-.22c0.92-.37,1.85-0.75,2.78-1.13l0.09,0.22C300.79,28.72,299.86,29.1,298.94,29.47Zm1.48-.34c-2.3,1.46-6.15,1.67-8.53,2.9a33.872,33.872,0,0,1-4.78.86c-1.13.05-1.41-.09,0.18-0.68a26.1,26.1,0,0,1,3.97-.78c0.99-.17,1.64-0.29,1.8-0.66,3.07-1,.78.2,1.61,0.11a20.454,20.454,0,0,1,3.54-1.15A7.238,7.238,0,0,0,300.42,29.13ZM478.13,22c-0.11.11-.26-0.05-0.42-0.44a10.279,10.279,0,0,1-.36-1.82,11.018,11.018,0,0,1-.06-1.33,10.384,10.384,0,0,1,.06-1.55c0.09-1.08.32-2.31,0.56-3.63-0.08,1.03-.13,1.77-0.14,2.37,0.01,0.58.04,1.05,0.05,1.56C477.91,18.16,477.92,19.35,478.13,22Zm13.25,23.18a13.615,13.615,0,0,0,1.95,1.59c0.51,0.33,1.13.73,2.8,1.82,0.12,0.23-.8-0.3-1.76-0.92a17.289,17.289,0,0,0-2.06-1.31c-1-.76-1.07-0.89-1.08-1ZM274.21,34.92c0.03-.09,1.8-0.3,2.93-0.48A16.034,16.034,0,0,1,274.21,34.92Zm140.28-4.56c2.46-.63,2.74-0.61,2.95-0.51a2.976,2.976,0,0,0-1.41.51C414.32,30.75,414.75,30.44,414.49,30.36ZM466.68,4.81a30.567,30.567,0,0,1-4.87,3.58C461.26,8.36,464.3,6.43,466.68,4.81Zm3.84-2.38a6.6,6.6,0,0,1,1.85-1.38l0.48-.31,0.53,0.1a5.388,5.388,0,0,1,2.65,1.28,1.031,1.031,0,0,1,.36.43,2.079,2.079,0,0,1-.51-0.31,5.516,5.516,0,0,0-2.54-1.14L472.92,1l-0.4.27-0.66.44C472.03,1.47,471.3,1.93,470.52,2.43Zm7.4,21.03c0.53,0.87.34,3.09,1.38,5.61-0.46.03-.83-1.46-0.68,0.24a10.825,10.825,0,0,1-.59-2.49c-0.08-.61-0.22-1.33-0.59-3.3,0.23,0.62.5,1.81,0.7,2.23S478.26,25.85,477.92,23.46Zm-76.58,9.22c4.48-.69-4.02.7,0,0h0ZM240.72,30.4c1.29,0.53,2,.8,2.42.99a2.181,2.181,0,0,1,.68.45,2.733,2.733,0,0,0,.83.49,15.848,15.848,0,0,0,2.95.92,9.307,9.307,0,0,1-3.42-.87c-0.82-.32-1.8-0.63-2.87-1.1-1.07-.45-2.27-0.95-3.58-1.5-1.02-.47-1.06-0.48-0.62-0.29,0.22,0.1.56,0.24,0.96,0.42,0.41,0.14.88,0.31,1.34,0.47C241.28,31.03,243.05,31.57,240.72,30.4Zm166.54,1.63c0.99-.11,1.96-0.31,2.93-0.5l0.04,0.24c-0.98.19-1.95,0.39-2.94,0.5ZM518.08,56.35c3.13,0.12,2.8.27,2.93,0.47-1.21-.04-1.47-0.14-2.95-0.23Zm30.5-5.33a9.305,9.305,0,0,1-2.6,1.11c-1.54.54-3.4,1.07-4.41,1.44a10.578,10.578,0,0,1,2.85-1.17C545.95,51.92,547.66,51.26,548.58,51.02ZM211.1,9.52a3.973,3.973,0,0,1,1.24-.86c0.12-.09.24-0.17,0.31-0.22l0.64-.45,0.47,0.69a19.418,19.418,0,0,0,1.38,1.81c0.41,0.45.78,1.12,1.97,2.63,0.25,0.63-.4-0.09-1.17-1.01a22.554,22.554,0,0,0-1.77-2.36,6.454,6.454,0,0,1-.54-0.97l-0.22-.51-0.67.31A7.142,7.142,0,0,0,211.1,9.52Zm66.1,25.4c0.02-.13,1.8-0.3,2.93-0.57a3.473,3.473,0,0,1-1.04.29C278.51,34.74,277.78,34.83,277.2,34.92Zm80.7-13.9c0.5,0.34,1,.7,1.53,1.09a20.794,20.794,0,0,0,1.78,1.26c0.67,0.44,1.43.93,2.29,1.5,0.88,0.55,1.93,1.07,3.12,1.72-2.3-.98-3.78-0.97-9.1-5.11-0.35-.58,1.01.37,1.48,0.52C359.28,22.1,358.61,21.57,357.9,21.02ZM499.67,51.31c-0.32-.21-0.07-0.11.31,0.06a10.806,10.806,0,0,1,1.07.49C501.72,52.23,500.01,51.54,499.67,51.31Zm9.69,3.64c0.94,0.29,1.91.47,2.87,0.7,0.97,0.17,1.93.39,2.91,0.5,0.72,0.27-.11.25-1.44,0.02-1.33-.21-3.14-0.64-4.41-0.99ZM274.25,35.4a4.345,4.345,0,0,1,1.48-.17A3.072,3.072,0,0,1,274.25,35.4Zm36.99-11.49a2.563,2.563,0,0,1,1.22-.91C313.59,22.54,309.51,25.21,311.24,23.91ZM446.58,18.1a3.782,3.782,0,0,1,1.32-.73c3.01-1.78,3.23-2.46,6.38-4.01,0.28,0.06-1.08,1-2.79,2.06C449.76,16.44,447.7,17.61,446.58,18.1ZM469.47,3.56c1.26-.88,2.53-1.68,3.19-2.07l0.36-.21,0.27,0.08c0.76,0.23.9,0.31-.02,0.09l-0.29-.07-0.27.19c-0.35.25-.98,0.66-1.92,1.27C467.57,5.18,466.44,5.78,469.47,3.56Zm69.24,50.92c-0.76.14,1-.43,1.41-0.51C540.89,53.83,539.12,54.4,538.71,54.48ZM201.2,16.41a21.925,21.925,0,0,1,2.43-1.78A19.183,19.183,0,0,1,201.2,16.41Zm30,9.75c-0.63-.44,1.01.41,1.35,0.64C233.19,27.25,231.54,26.4,231.2,26.16Zm186.37,4.15c-0.76.16,1-.45,1.41-0.53C419.73,29.62,417.97,30.22,417.57,30.31Zm171.34,9.31a10.681,10.681,0,0,1-2.26-2.92c-0.4-.69-0.77-1.42-1.13-2.08-0.32-.68-0.63-1.3-0.91-1.76l-0.25-.41-0.3.24a3.1,3.1,0,0,0-.66.64c-1.76,1-2.52,1.27-2.82,1.19,1.48-.96,2.49-1.61,3.29-2.13l0.69-.44,0.37,0.78c0.51,1.07.84,1.89,1.41,2.88a19.3,19.3,0,0,0,1,1.71A25.241,25.241,0,0,0,588.91,39.62ZM52.57,44.56a9.6,9.6,0,0,1-2.69.99c-1.59.44-3.47,0.95-4.53,1.25,3.58-1.28,3.96-1.35,2.69-1.6a24.48,24.48,0,0,0,3.14-.66,43.133,43.133,0,0,0,4.04-1.52c0.18,0.13-.53.69,1.58-0.07,0.4-.09.06,0.06-0.62,0.32-0.69.23-1.7,0.57-2.62,0.88C51.7,44.71,50.22,45.14,52.57,44.56Zm92.73-3.69c-0.78.02,1.06-.27,1.47-0.29C147.55,40.56,145.72,40.85,145.3,40.87Zm108.12-6.23c-2.49-.42-2.08-0.16-2,0.01,0.04,0.08,0,.15-0.54.09a12.287,12.287,0,0,1-1.23-.2c-0.56-.15-1.29-0.34-2.25-0.59a1.688,1.688,0,0,1,1.33-.15C249.59,33.93,251.01,34.13,253.42,34.64Zm10.39,1.19c2.21,0.31,6.68.08,6,.48C266.31,36.45,262.76,36.17,263.81,35.83ZM474,1.89c-0.41-.13-0.1-0.13.36,0.03,0.22,0.09.49,0.21,0.72,0.33a4.633,4.633,0,0,1,.48.37c0.34,0.31.06,0.13-.34-0.14a3.75,3.75,0,0,0-.69-0.36A2.788,2.788,0,0,0,474,1.89ZM590.58,42.08c0.26,0.1,1.87,1.96,3.21,3.09A18.289,18.289,0,0,1,590.58,42.08ZM231.14,26.27A14.162,14.162,0,0,1,234.78,29a32.329,32.329,0,0,1-6.33-4.09C229.32,25.37,231.38,26.73,231.14,26.27ZM477.58,11.64a3.538,3.538,0,0,1-.14,1.52A4.138,4.138,0,0,1,477.58,11.64ZM42.31,47.05c0.21-.18,2.64-0.75,4.35-1.22A32.106,32.106,0,0,1,42.31,47.05ZM60.9,41.03c-0.74.25,0.94-.56,1.33-0.71C62.97,40.06,61.3,40.9,60.9,41.03Zm20.3-12.7c1.47-1.72,2.79-2.41,5.18-5.42-0.45,1.08,1.57-1.1,3.45-3.67l0.05-.07,0.05,0.07a49.018,49.018,0,0,0,3.39,4.33c-1.84-1.73-.03.2-0.37,0.31a19.332,19.332,0,0,1-1.87-2.42c-0.53-.75-1-1.43-1.43-2.05l0.45,0.02c-0.79.98-1.48,1.81-2.13,2.58-0.69.72-1.33,1.39-1.97,2.07C84.66,25.37,83.25,26.65,81.2,28.33Zm200.52,6.34c1.83-.25,3.05-0.5,3.02-0.26a10.183,10.183,0,0,1-2.62.46A0.361,0.361,0,0,1,281.72,34.67ZM551.63,50.56a27.744,27.744,0,0,1,2.72-1.3A15.448,15.448,0,0,1,551.63,50.56ZM407.38,32.87a47.659,47.659,0,0,1-8.96,1.29,14.673,14.673,0,0,1,3.25-.51c0.87-.1,1.85-0.2,2.83-0.31C405.48,33.17,406.47,33.01,407.38,32.87ZM460.99,9.9c-0.69.36,0.84-.71,1.21-0.91C462.89,8.62,461.36,9.7,460.99,9.9Zm66.03,47.24a14.4,14.4,0,0,1-2.34.3,5.96,5.96,0,0,1-1.27-.09c-0.16-.05-0.02-0.1.54-0.12,0.28,0,.67-0.01,1.17-0.02C525.63,57.18,526.26,57.16,527.02,57.14Zm42.17-15.23a11.006,11.006,0,0,1,2.6-1.51A12.669,12.669,0,0,1,569.19,41.91ZM80.22,29.49c-0.64.45,0.75-.8,1.06-1.08C81.9,27.94,80.57,29.27,80.22,29.49ZM210.27,10.97c-0.68.39,0.81-.75,1.17-0.96C212.12,9.62,210.63,10.76,210.27,10.97ZM383.41,32.79a20.28,20.28,0,0,1-4.48-.68C378.3,31.71,381.08,32.36,383.41,32.79Zm29.9-.91c2.18-.47,3.74-0.71,5.89-1.3a20.337,20.337,0,0,1-2.2.82c-1,.29-2.22.6-3.59,0.95Zm173.35,5.66c-0.35-.7.68,0.86,0.91,1.21,0.2,0.34.01,0.13-.25-0.2A7.915,7.915,0,0,1,586.66,37.54Zm16.73,14.74c-0.68-.39,1.05.32,1.42,0.52C605.48,53.17,603.75,52.49,603.39,52.28ZM151.32,40.43c2.88-.56,2.99-0.53,2.16-0.25-0.42.13-1.07,0.33-1.74,0.53-0.67.16-1.36,0.33-1.83,0.45-1.63.24-1.05-.03-3.03,0.25C147.21,41.25,151.33,40.61,151.32,40.43Zm244.07-6.34c-0.39-.04-0.12-0.07.3-0.09s0.99-.06,1.2-0.05C397.68,33.98,395.81,34.16,395.39,34.09Zm188.14-.55a3.308,3.308,0,0,1,.72-0.55l0.02-.02L584.28,33c0.41,0.84,1.02,2.22,1.62,3.25a5.228,5.228,0,0,1-.69-1.09c-0.32-.6-0.66-1.39-1-2.13l0.08,0.03C584.02,33.22,583.77,33.39,583.53,33.54ZM112.66,37.59a24.806,24.806,0,0,1,2.89.9A18.9,18.9,0,0,1,112.66,37.59Zm8.67,2.7c-0.75-.22,1.11.07,1.51,0.18C123.59,40.69,121.73,40.4,121.33,40.29ZM292.06,32.6a13.355,13.355,0,0,1-3.48,1.28C287.94,33.98,288.5,33.74,292.06,32.6Zm57.66-18.2a10.769,10.769,0,0,1,1.18,1.22c0.6,0.65,1.33,1.43,1.93,2.09a7.648,7.648,0,0,1-1.22-1.18C351,15.89,350.27,15.09,349.72,14.4ZM509.07,55.99c3.71,1.01,5.71,1.36,5.85,1.7-0.44-.1-1.05-0.22-1.7-0.38s-1.37-.29-2.01-0.48C509.92,56.49,508.91,56.12,509.07,55.99Zm19.5,1.5a4.593,4.593,0,0,1,1.51-.19,2.8,2.8,0,0,1-.85.21A2.039,2.039,0,0,1,528.57,57.49Zm73.36-5.68a42.645,42.645,0,0,0,4.13,1.89c0.18,0.22-.39.07-1.5-0.35,0.49,0.26,1.12.57,1.83,0.9,0.72,0.3,1.52.63,2.37,0.93a11.618,11.618,0,0,1-2.29-.67c-1.11-.43-2.41-0.98-3.45-1.47,0.64,0.11.18-.19-0.34-0.51C602.16,52.18,601.58,51.8,601.93,51.81ZM133.29,42.2c0.82-.16,7.18.03,3.03,0.21C135.09,42.34,134.8,42.32,133.29,42.2Zm38.24-7.89c0.94-.37,1.84-0.83,2.76-1.24l0.1,0.22c-0.92.41-1.83,0.87-2.76,1.25ZM519.49,57.86c1.62,0.06,2.34.01,2.68,0.1a0.372,0.372,0,0,1,.36.26c-1.23-.01-1.51-0.05-3.05-0.12ZM29.1,50.3c1-.14,1.99-0.31,2.99-0.48l0.04,0.24c-1,.17-1.99.34-2.99,0.48Zm92.14-9.66c0.27-.1,2.73.47,4.5,0.76A31.886,31.886,0,0,1,121.24,40.64Zm31.68,0.05a21.689,21.689,0,0,1,2.93-.8A21.688,21.688,0,0,1,152.92,40.69ZM344.2,9.52c-0.6-.44.98,0.39,1.26,0.72C346.01,10.75,344.55,9.7,344.2,9.52ZM477.13,28.21c-0.18-.77.48,1.01,0.58,1.42C477.91,30.4,477.23,28.63,477.13,28.21Zm54.48,29.1a3.658,3.658,0,0,1,1.5-.23A4.036,4.036,0,0,1,531.61,57.31Zm17.54-4.83c0.01-.11,1.7-0.76,2.77-1.25A17.185,17.185,0,0,1,549.15,52.48Zm-61.36-7.74c-0.94-.72-1.48-1.07-2.37-1.85a23.75,23.75,0,0,1-4.01-4.8l-0.2.14c-0.96-1.68-.1-0.64,1.35,1.14A50.565,50.565,0,0,0,487.79,44.74ZM537.6,56.27c0.21-.19,2.66-0.81,4.38-1.31A35.137,35.137,0,0,1,537.6,56.27Zm28.1-11.32c-0.72.32,0.89-.66,1.26-0.84C567.68,43.79,566.09,44.78,565.7,44.95ZM21.65,51.65c2.03-.15,2.83-0.08,3.07.11-1.5.21-3.01,0.36-4.52,0.54C19.98,52.11,22.01,51.84,21.65,51.65ZM38.14,49.2a12.773,12.773,0,0,1,2.97-.64A12.246,12.246,0,0,1,38.14,49.2ZM475.39,19.1c0.18,2.5.41,4.55,0.39,4.98,0.01,0.21-.12.02-0.21-0.76-0.05-.39-0.11-0.92-0.18-1.62C475.38,21.01,475.34,20.15,475.39,19.1ZM584.33,35.34c0.8,1.56.3,0.81-.11,0.05-0.24-.16.74,1.8,1.8,3.41s2.08,2.95,1.14,2.09c-0.79-1.29-2.08-3.3-2.93-4.9-0.86-1.58-1.46-2.65-1.32-1.73-0.09-.24-0.17-0.46-0.22-0.61l2.45,0.78c-1.53.77-2.13,0.87-2.4,0.71,0.82-.44,1.52-0.84,2.09-1.2l-1.61-.51A8.585,8.585,0,0,0,584.33,35.34Zm14.57,15.6c-0.3.15-2.22-.72-5.31-3.23,0.29,0.05-.15-0.36-1.01-1.2,0.54,0.41,1.52,1.15,2.66,2.01,0.59,0.4,1.19.86,1.82,1.27S598.31,50.6,598.9,50.94Zm4.02,2.31c-0.7-.39,1.08.33,1.45,0.54C605.07,54.17,603.29,53.47,602.92,53.25ZM476.08,8.66a2.83,2.83,0,0,1,.02,1.42A4,4,0,0,1,476.08,8.66Zm60.14,48.39c0.02-.13,1.83-0.46,2.95-0.83A14.094,14.094,0,0,1,536.22,57.05Zm26.97-10.36c-0.72.31,0.9-.65,1.29-0.82C565.2,45.56,563.58,46.53,563.19,46.69ZM460.42,11.82c0.85-.54,1.7-1.08,2.55-1.61l0.13,0.2c-0.85.54-1.71,1.08-2.55,1.61Zm48.37,45.21c0.98,0.3,2,.49,3,0.73,1.02,0.18,2.02.4,3.05,0.52-0.83,0-1.62-.06-1.59.11-1.54-.27-3.06-0.61-4.55-1.02Zm-73.5-31.08c-0.75.27,0.94-.59,1.33-0.74C437.37,24.94,435.69,25.8,435.29,25.95Zm47.78,14.78c2.03,2.51,2.02,2.62.73,1.43-0.7-.77-1.33-1.61-1.98-2.44l0.19-.14C482.81,40.63,482.96,40.71,483.07,40.73Zm107.02,3.86a2.77,2.77,0,0,1,1.27.94c0.4,0.49-.37-0.08-1.01-0.61C589.69,44.4,589.22,43.87,590.09,44.59ZM27.76,51.6c-0.79.05,1.07-.31,1.49-0.34C30.03,51.2,28.18,51.57,27.76,51.6ZM305.35,29.13c1.13-.81,5.63-2.59,4.31-1.61C306.5,29.09,307.99,27.95,305.35,29.13Zm272.51,9.6a1.777,1.777,0,0,1,1.35-.69A1.748,1.748,0,0,1,577.86,38.73ZM412.18,33.84c3.95-.91,3.91-0.67,4.6-0.58C411.82,34.62,411.81,34.2,412.18,33.84Zm24.6-8.3c-0.74.27,0.94-.59,1.33-0.76C438.84,24.48,437.19,25.41,436.78,25.54ZM468.32,7.32a3.627,3.627,0,0,1,1.26-.82A3.816,3.816,0,0,1,468.32,7.32Zm31.59,46.91a14.624,14.624,0,0,1-1.64-.93c0.09,0.04.67,0.38,1.42,0.75,1.46,0.8,3.55,1.72,3.03,1.56a14.858,14.858,0,0,1-1.88-.82C500.37,54.51,500.04,54.31,499.91,54.23Zm39.41,2.57a3.728,3.728,0,0,1,1.49-.4A3.768,3.768,0,0,1,539.32,56.8Zm15.82-5.78c1.58-.7.82-0.24,0.05,0.11,1.13-.27,4.18-1.83,1.53-0.31C554.43,51.75,553.39,51.98,555.14,51.02ZM2.1,54.19c0.6-.32,5.87-0.35,4.55-0.02C4.66,54.24,4.26,54.11,2.1,54.19ZM245.46,35.15a21.162,21.162,0,0,1,3.01.71A21.821,21.821,0,0,1,245.46,35.15Zm175.7-3.39c1.05-.36,2.54-0.42,1.61-0.02-0.26.14-2.55,0.44-4.5,1.11C418.6,32.62,421.19,31.92,421.16,31.76Zm-64.99-8.59c0.88,0.74,1.84,1.53,2.54,2.14,0.74,0.55,1.2.96,1,1.01a30.636,30.636,0,0,1-2.97-2.29C355.92,23.35,355.51,22.91,356.17,23.17Zm17.85,9.43c1.94,0.62,2.29.88,4.43,1.5a13.118,13.118,0,0,1-2.37-.54c-0.58-.16-1.22-0.34-1.85-0.52-0.62-.22-1.24-0.43-1.79-0.62C373.25,32.6,374.03,32.78,374.02,32.6Zm27.54,3.19c5.16-.71-3.7.71,0,0h0Zm38.07-11.36c0.92-.44,1.83-0.89,2.73-1.37,0.76-.29,1.5-0.56,1.52-0.38-1.8.96-3.63,1.86-5.47,2.74C439.1,24.98,439.77,24.55,439.63,24.43Zm5.5-2.67c-0.73.32,0.9-.66,1.28-0.84C447.12,20.6,445.51,21.59,445.13,21.76Zm37.38,19.42c0.1-.03,1.3,1.43,2.16,2.3A14.565,14.565,0,0,1,482.51,41.18ZM20.29,53.14c-0.79.03,1.08-.28,1.5-0.29C22.57,52.82,20.71,53.12,20.29,53.14ZM271.46,38.52c-0.8,0,1.1-.24,1.53-0.25C273.79,38.27,271.89,38.52,271.46,38.52Zm28.47-6.47c-0.76.23,0.97-.55,1.38-0.69C302.07,31.12,300.34,31.92,299.93,32.05Zm13.99-6.3a14.152,14.152,0,0,1,3.21-1.79C317.23,24.01,316.3,24.73,313.92,25.75Zm30.5-14.19a9.2,9.2,0,0,0-1.58-.79,5.867,5.867,0,0,0-2.01-.38c-1.31-.01-2.66.57-2.78,0.27a8.63,8.63,0,0,1,3.12-.46A5.908,5.908,0,0,1,344.42,11.56ZM468.65,7.82c-0.69.38,0.83-.72,1.2-0.92C470.53,6.52,469.02,7.62,468.65,7.82Zm3.79-2.48c-0.68.37,0.83-.73,1.2-0.93C474.32,4.03,472.8,5.14,472.44,5.34ZM319.34,22.89a3.925,3.925,0,0,1,1.31-.79A3.532,3.532,0,0,1,319.34,22.89Zm11.54-7.49,2.5-1.75c0.82-.58,1.6-1.14,2.39-1.64-0.67.56-1.3,1.1,0.13,0.2a22.58,22.58,0,0,1-2.83,2.04C331.71,15.12,330.49,15.83,330.88,15.4Zm99.16,13.85c-0.08.03,0.05-.15-0.04-0.11,3.07-1.08,1.52-.38-0.38.38-1.93.7-4.21,1.46-2.48,0.71C427.36,30.12,429.37,29.52,430.04,29.25ZM301.49,31.8c-0.29-.09.77-0.43,1.9-0.82s2.31-.87,2.3-1.09C310.71,27.87,302.57,31.71,301.49,31.8Zm66.52-.99a6.718,6.718,0,0,1,1.26.7,5.432,5.432,0,0,0,1.55.72,3.092,3.092,0,0,1-1.02-.22c-0.44-.18-0.93-0.41-1.34-0.63C367.64,30.94,367.14,30.56,368.01,30.81ZM210.46,13.9c2.63-1.88,2.47-1.49,2.69-1.42-1.02.68-1.31,0.76-2.56,1.62Zm111.63,7.63a29.833,29.833,0,0,1,2.54-1.72A17.377,17.377,0,0,1,322.09,21.53Zm26.68-4.35c-0.51-.65.89,0.75,1.17,1.1C350.45,18.93,349.04,17.53,348.77,17.18ZM89.05,22.96c-0.44-.72.8,0.85,1.03,1.23C90.51,24.91,89.28,23.34,89.05,22.96Zm44.11,21.63a16.151,16.151,0,0,1,3.13.09A12.809,12.809,0,0,1,133.16,44.59Zm204-32.84a7.889,7.889,0,0,1,3.18-1.06c-0.17.1-.58,0.17-1,0.35a2.729,2.729,0,0,0-.93.51,2.2,2.2,0,0,1-1.14.42ZM198.24,22.94a3.765,3.765,0,0,1,1.28-.82A3.928,3.928,0,0,1,198.24,22.94Zm-5.11,3.35a11.257,11.257,0,0,1,2.6-1.62A13.284,13.284,0,0,1,193.13,26.29Zm9-5.75c-0.69.38,0.83-.74,1.2-0.94C204.02,19.22,202.5,20.34,202.13,20.54Z" transform="translate(4.169)"/></svg>