<svg id="Layer_1" data-name="Layer 1" xmlns="http://www.w3.org/2000/svg" viewBox="0 0 142 32"><defs><style>.cls-1{fill:#1e266d;}.cls-2{fill:#2f55db;}</style></defs><title>logo</title><path class="cls-1" d="M61.451,4.971H68.7q4.953,0,7.189,1.407a4.9,4.9,0,0,1,2.238,4.476,5.629,5.629,0,0,1-.98,3.419,3.911,3.911,0,0,1-2.6,1.607v0.159a5.131,5.131,0,0,1,3.194,1.846,5.991,5.991,0,0,1,.979,3.593,5.921,5.921,0,0,1-2.3,4.963,9.967,9.967,0,0,1-6.251,1.781H61.451V4.971Zm4.937,9.208h2.866a5.253,5.253,0,0,0,2.907-.62,2.314,2.314,0,0,0,.9-2.051,2.052,2.052,0,0,0-.979-1.916,6.3,6.3,0,0,0-3.1-.581h-2.6v5.168Zm0,3.913V24.15h3.218a4.776,4.776,0,0,0,3.009-.779,2.871,2.871,0,0,0,.972-2.385q0-2.895-4.141-2.895H66.388Z" transform="translate(0)"/><path class="cls-1" d="M87.839,28.221H82.982V3.476h4.857V28.221Z" transform="translate(0)"/><path class="cls-1" d="M92.728,5.845q0-2.37,2.644-2.37t2.644,2.37A2.307,2.307,0,0,1,97.354,7.6a2.778,2.778,0,0,1-1.982.628Q92.727,8.231,92.728,5.845Zm5.065,22.376H92.935V10.441h4.857v17.78Z" transform="translate(0)"/><path class="cls-1" d="M119.323,28.221h-4.857V17.836a4.986,4.986,0,0,0-.685-2.886,2.492,2.492,0,0,0-2.182-.962,3.28,3.28,0,0,0-2.945,1.359,8.426,8.426,0,0,0-.908,4.509v8.365h-4.857V10.441h3.71l0.653,2.274h0.27a5.132,5.132,0,0,1,2.238-1.948,7.627,7.627,0,0,1,3.24-.66,6.235,6.235,0,0,1,4.714,1.678,6.729,6.729,0,0,1,1.608,4.843V28.221Z" transform="translate(0)"/><path class="cls-1" d="M128.989,18.552l2.118-2.7,4.985-5.407h5.477L134.5,18.155,142,28.221h-5.606l-5.127-7.2-2.086,1.67v5.535h-4.857V3.476h4.857V14.512l-0.255,4.039h0.064Z" transform="translate(0)"/><path class="cls-2" d="M47.775,14.783A26.768,26.768,0,0,0,24.033,0,26.772,26.772,0,0,0,.29,14.784a2.693,2.693,0,0,0,0,2.433A26.768,26.768,0,0,0,24.033,32,26.772,26.772,0,0,0,47.775,17.216,2.693,2.693,0,0,0,47.775,14.783ZM24.033,28a12.011,12.011,0,1,1,.012,0H24.033Zm0-20a7.963,7.963,0,0,0-2.112.316,3.99,3.99,0,0,1-5.583,5.575A8,8,0,1,0,24.033,8Z" transform="translate(0)"/></svg>