<svg id="Layer_1" data-name="Layer 1" xmlns="http://www.w3.org/2000/svg" viewBox="0 0 59.871 50"><defs><style>.cls-1{fill:#1d79fb;}</style></defs><title>quotes</title><path class="cls-1" d="M19.162,22.66a15.862,15.862,0,0,0-4.384-.64,13.775,13.775,0,0,0-5.5,1.126c1.382-5.058,4.7-13.786,11.313-14.769a1.571,1.571,0,0,0,1.281-1.13l1.445-5.169A1.57,1.57,0,0,0,22.022.1,10.977,10.977,0,0,0,20.544,0C12.607,0,4.748,8.284,1.431,20.144c-1.947,6.958-2.518,17.42,2.278,24C6.392,47.834,10.308,49.8,15.346,50h0.061A13.929,13.929,0,0,0,19.162,22.66Z" transform="translate(0)"/><path class="cls-1" d="M58.074,29.238A13.961,13.961,0,0,0,49.7,22.66a15.861,15.861,0,0,0-4.383-.64,13.779,13.779,0,0,0-5.5,1.126C41.2,18.088,44.52,9.36,51.133,8.377a1.572,1.572,0,0,0,1.281-1.13l1.445-5.169A1.57,1.57,0,0,0,52.56.1,10.961,10.961,0,0,0,51.082,0c-7.936,0-15.8,8.284-19.113,20.144-1.946,6.958-2.517,17.42,2.279,24.006,2.683,3.684,6.6,5.652,11.636,5.848h0.062A13.929,13.929,0,0,0,58.074,29.238Z" transform="translate(0)"/></svg>