<svg id="Layer_1" data-name="Layer 1" xmlns="http://www.w3.org/2000/svg" viewBox="0 0 96 31.912"><defs><style>.cls-1{fill:#09f;}.cls-2{fill:#2b2b4f;}</style></defs><title>logo</title><path class="cls-1" d="M4.673,27.327A15.956,15.956,0,1,1,15.956,32H0ZM14.36,6.471V25.618h3.191V6.471H14.36ZM7.978,11.257v9.573h3.191V11.257H7.978Zm12.765,0v9.573h3.191V11.257H20.743Z" transform="translate(0 -0.088)"/><path class="cls-2" d="M51.176,5.554h3.373l7.467,19.633H58.089l-1.825-4.894H49.406l-1.8,4.894H43.682Zm4.4,12.057-2.71-7.715L50.042,17.61h5.531Z" transform="translate(0 -0.088)"/><path class="cls-2" d="M63.785,5h3.706V20.542a1.829,1.829,0,0,0,.387,1.244,1.39,1.39,0,0,0,1.106.442,2.747,2.747,0,0,0,.732-0.11,4.792,4.792,0,0,0,.761-0.277l0.5,2.821a7.072,7.072,0,0,1-1.742.553,9.515,9.515,0,0,1-1.8.194,3.709,3.709,0,0,1-2.7-.926,3.512,3.512,0,0,1-.954-2.641V5Z" transform="translate(0 -0.088)"/><path class="cls-2" d="M73.463,25.187v-10.9H71.555V11.471h1.908V10.586a6.533,6.533,0,0,1,1.3-4.286A4.344,4.344,0,0,1,78.3,4.724a8.237,8.237,0,0,1,3.567.857L81.123,8.374A4.675,4.675,0,0,0,80.142,8,4.045,4.045,0,0,0,79.1,7.849q-1.935,0-1.935,2.6v1.023h3.54v2.821h-3.54v10.9H73.463Z" transform="translate(0 -0.088)"/><path class="cls-2" d="M83.114,28.007a7.385,7.385,0,0,0,.913.208,4.975,4.975,0,0,0,.747.069,1.592,1.592,0,0,0,.664-0.138,1.432,1.432,0,0,0,.553-0.484,4.736,4.736,0,0,0,.5-0.954q0.249-.608.526-1.521L81.289,10.7H85.1l3.927,11.283L92.516,10.7H96L89.917,28.063a5.2,5.2,0,0,1-1.8,2.488,5.057,5.057,0,0,1-3.153.968,6.01,6.01,0,0,1-.9-0.069,5.772,5.772,0,0,1-.954-0.235V28.007Z" transform="translate(0 -0.088)"/></svg>