<svg id="Layer_1" data-name="Layer 1" xmlns="http://www.w3.org/2000/svg" viewBox="0 0 110 32"><defs><style>.cls-1{fill:#040470;}.cls-2{fill:#ff6c02;}.cls-3{fill:#fff;}</style></defs><title>logo</title><path class="cls-1" d="M45.008,26.435V5.393h4.08v10L57.9,5.364H62.39l-8.041,9.349,8.545,11.723H58.311l-6.534-9.111-2.69,2.82v6.292h-4.08Z"/><path class="cls-1" d="M71.786,26.732a8.477,8.477,0,0,1-3.4-.653,7.623,7.623,0,0,1-2.557-1.766,7.787,7.787,0,0,1-1.611-2.567,8.677,8.677,0,0,1,0-6.144,7.79,7.79,0,0,1,1.611-2.567,7.629,7.629,0,0,1,2.557-1.765,8.477,8.477,0,0,1,3.4-.653,8.37,8.37,0,0,1,3.384.653,7.663,7.663,0,0,1,2.542,1.765A7.79,7.79,0,0,1,79.324,15.6a8.677,8.677,0,0,1,0,6.144,7.907,7.907,0,0,1-1.6,2.567,7.466,7.466,0,0,1-2.542,1.766A8.475,8.475,0,0,1,71.786,26.732Zm-4.05-8.043a5.436,5.436,0,0,0,.31,1.885,4.616,4.616,0,0,0,.857,1.468,3.822,3.822,0,0,0,1.286.965,3.9,3.9,0,0,0,3.192,0,3.832,3.832,0,0,0,1.286-.965,4.575,4.575,0,0,0,.857-1.483,5.559,5.559,0,0,0,.31-1.9,5.471,5.471,0,0,0-.31-1.87,4.6,4.6,0,0,0-.857-1.484,3.852,3.852,0,0,0-1.286-.965,3.767,3.767,0,0,0-1.6-.341,3.626,3.626,0,0,0-1.6.356,4.018,4.018,0,0,0-1.286.979,4.583,4.583,0,0,0-.857,1.484A5.469,5.469,0,0,0,67.736,18.689Z"/><path class="cls-1" d="M92.77,14.327a7.789,7.789,0,0,0-3.223.7,4.073,4.073,0,0,0-2.039,2v9.408H83.547V10.884h3.636v3.324a7.036,7.036,0,0,1,.975-1.439,7.523,7.523,0,0,1,1.212-1.113,5.605,5.605,0,0,1,1.316-.727,3.621,3.621,0,0,1,1.285-.253h0.488a1.631,1.631,0,0,1,.311.03v3.621Z"/><path class="cls-1" d="M100.008,26.732a5.857,5.857,0,0,1-2.1-.371,5.015,5.015,0,0,1-1.685-1.039,4.839,4.839,0,0,1-1.109-1.558,4.739,4.739,0,0,1-.4-1.958,4.333,4.333,0,0,1,.488-2.034,4.671,4.671,0,0,1,1.36-1.588,6.729,6.729,0,0,1,2.084-1.024,9.077,9.077,0,0,1,2.661-.371,11.456,11.456,0,0,1,2.025.178,8.244,8.244,0,0,1,1.759.5v-0.89a3.126,3.126,0,0,0-.872-2.374,3.618,3.618,0,0,0-2.587-.831,6.834,6.834,0,0,0-2.424.445,11.274,11.274,0,0,0-2.424,1.306L95.574,12.6a11.41,11.41,0,0,1,6.445-1.988,7.534,7.534,0,0,1,5.188,1.647,6.051,6.051,0,0,1,1.847,4.764v4.837a1.4,1.4,0,0,0,.222.89,0.966,0.966,0,0,0,.724.3v3.384a8.788,8.788,0,0,1-1.744.208,2.636,2.636,0,0,1-1.729-.5,2.171,2.171,0,0,1-.754-1.336l-0.088-.861a6.857,6.857,0,0,1-2.513,2.077A7.182,7.182,0,0,1,100.008,26.732Zm1.124-2.908a5.139,5.139,0,0,0,1.907-.356,3.459,3.459,0,0,0,1.4-.95,1.428,1.428,0,0,0,.65-1.127V19.609a9.667,9.667,0,0,0-1.537-.43,8.265,8.265,0,0,0-1.6-.164,4.224,4.224,0,0,0-2.512.7,2.1,2.1,0,0,0-.976,1.766,2.128,2.128,0,0,0,.769,1.677A2.784,2.784,0,0,0,101.131,23.824Z"/><rect class="cls-2" width="31.875" height="32" rx="4.648" ry="4.648"/><path class="cls-3" d="M7.133,22.8V9.952H5V7.811H8.2A1.069,1.069,0,0,1,9.267,8.881V21.732H22.534l2.133-8.567H11.4V11.023H26.035a1.071,1.071,0,0,1,1.035,1.331L24.4,23.063a1.067,1.067,0,0,1-1.035.811H8.2A1.069,1.069,0,0,1,7.133,22.8Z"/></svg>