<svg id="Layer_2" data-name="Layer 2" xmlns="http://www.w3.org/2000/svg" viewBox="0 0 142 52"><defs><style>.cls-1{fill:#1ebbce;}</style></defs><title>logo</title><path class="cls-1" d="M38,8.1a26.73,26.73,0,0,1-2.973-.817,9.06,9.06,0,0,1-2.357-1.157l0.547-2.587H50.569L50.023,6.126a18.063,18.063,0,0,1-2.358,1.089,19.674,19.674,0,0,1-2.973.885L19.818,51.184,12.984,52,4.715,8.1a18.813,18.813,0,0,1-2.7-.851A7.851,7.851,0,0,1,0,6.126L0.547,3.539H23.1L22.551,6.126a20.649,20.649,0,0,1-2.8,1.123,30.474,30.474,0,0,1-3.212.851l3.9,26.816,0.205,6.4h0.136l2.871-6.534Z"/><path class="cls-1" d="M47.288,21.1V18.786a23.789,23.789,0,0,1,2.734-.851q1.707-.442,3.622-0.783t3.793-.578a26.8,26.8,0,0,1,3.314-.238l1.23,0.813-6.15,29.2h4.783v2.374a13.588,13.588,0,0,1-2.084,1.188A20.7,20.7,0,0,1,56,50.89a21.885,21.885,0,0,1-2.7.663,14.83,14.83,0,0,1-2.6.244q-2.6,0-3.588-.987a2.985,2.985,0,0,1-.991-2.145,16.957,16.957,0,0,1,.205-2.653q0.206-1.292.547-2.86l4.647-21.1ZM52.96,5.785a4.413,4.413,0,0,1,1.572-3.607A6.034,6.034,0,0,1,58.5.885a6.219,6.219,0,0,1,4.134,1.293,4.458,4.458,0,0,1,1.538,3.607,4.3,4.3,0,0,1-1.538,3.471A6.212,6.212,0,0,1,58.5,10.55a6.026,6.026,0,0,1-3.963-1.293A4.259,4.259,0,0,1,52.96,5.785Z"/><path class="cls-1" d="M74.485,5.65l-4.647-.885V2.45a17.637,17.637,0,0,1,2.585-.817q1.632-.408,3.538-0.783t3.911-.612A31.71,31.71,0,0,1,83.58,0l1.36,0.747-8.952,45.6H80.84v2.374A9.285,9.285,0,0,1,79,49.842a17.322,17.322,0,0,1-2.551.977,28.038,28.038,0,0,1-2.89.7,15.682,15.682,0,0,1-2.856.278,4.825,4.825,0,0,1-3.368-.987,2.913,2.913,0,0,1-1.054-2.145,16.876,16.876,0,0,1,.205-2.653q0.2-1.292.547-2.86Z"/><path class="cls-1" d="M94.918,5.65l-4.647-.885V2.45a17.637,17.637,0,0,1,2.585-.817q1.632-.408,3.538-0.783t3.911-.612A31.71,31.71,0,0,1,104.013,0l1.36,0.747-8.952,45.6h4.852v2.374a9.285,9.285,0,0,1-1.837,1.117,17.322,17.322,0,0,1-2.551.977,28.038,28.038,0,0,1-2.89.7,15.682,15.682,0,0,1-2.856.278,4.825,4.825,0,0,1-3.368-.987,2.913,2.913,0,0,1-1.054-2.145,16.876,16.876,0,0,1,.205-2.653q0.2-1.292.547-2.86Z"/><path class="cls-1" d="M128.061,40.361a26.343,26.343,0,0,1-2.222,4.255,20.261,20.261,0,0,1-3.04,3.709,15.353,15.353,0,0,1-3.759,2.655A9.84,9.84,0,0,1,114.6,52a6.954,6.954,0,0,1-5.672-2.585q-2.119-2.586-2.119-7.691a32.332,32.332,0,0,1,1.469-9.9,25.375,25.375,0,0,1,4.168-8.031,19.331,19.331,0,0,1,6.526-5.377,18.62,18.62,0,0,1,8.541-1.94,9.976,9.976,0,0,1,3.042.409q1.263,0.408,2.7,1.021a19.716,19.716,0,0,1,3.826-1.021A30.617,30.617,0,0,1,142,16.54l-5.74,29.811h4.785v2.374a9.747,9.747,0,0,1-1.813,1.117,17.062,17.062,0,0,1-2.459.977,26.336,26.336,0,0,1-2.735.7,13.557,13.557,0,0,1-2.631.278,4.731,4.731,0,0,1-3.417-1.021,3,3,0,0,1-1.024-2.11,20.007,20.007,0,0,1,.342-3.232q0.341-2.007,1.024-5.071h-0.273Zm-8.475,6.195a4.31,4.31,0,0,0,2.7-1.158,15.82,15.82,0,0,0,2.665-2.892,28.583,28.583,0,0,0,2.323-3.812q1.059-2.077,1.81-3.846l2.529-13.476a6.587,6.587,0,0,0-1.537-.783,6.127,6.127,0,0,0-1.879-.238,7.542,7.542,0,0,0-4.922,1.8,14.9,14.9,0,0,0-3.689,4.7,25.963,25.963,0,0,0-2.288,6.5,33.8,33.8,0,0,0-.786,7.215,10.3,10.3,0,0,0,.751,4.56A2.463,2.463,0,0,0,119.587,46.556Z"/></svg>