<svg id="Layer_3" data-name="Layer 3" xmlns="http://www.w3.org/2000/svg" viewBox="0 0 192 44"><defs><style>.cls-1{fill:#10bcee;}.cls-2{fill:#fff;}</style></defs><title>logo</title><path class="cls-1" d="M39.57,14.444V1.137A22.746,22.746,0,0,0,34.168.1V14.444l2.7-1.459Z" transform="translate(0 -0.075)"/><path class="cls-1" d="M0,3.778V34.79a20.718,20.718,0,0,0,5.914-1.505c2.954-1.03,6.3-2.2,9.839-2.2a18.39,18.39,0,0,1,7.206,1.576V1.831A16.5,16.5,0,0,0,15.752.075C9.777,0.075,4.122,3.778,0,3.778Z" transform="translate(0 -0.075)"/><path class="cls-1" d="M42.811,2.216V19.9l-5.942-3.21L30.927,19.9V0.293A16.134,16.134,0,0,0,26.2,1.831V32.663a18.389,18.389,0,0,1,7.206-1.576c3.537,0,6.885,1.168,9.839,2.2a20.716,20.716,0,0,0,5.913,1.505V3.778A21.1,21.1,0,0,1,42.811,2.216Z" transform="translate(0 -0.075)"/><path class="cls-1" d="M6.974,36.369A22.593,22.593,0,0,1,0,38.054v6.021c4.122,0,9.777-3.7,15.752-3.7A9.113,9.113,0,0,1,22.807,43.3h0.152v-6.92a13.931,13.931,0,0,0-7.206-2.027C12.761,34.351,9.819,35.377,6.974,36.369Z" transform="translate(0 -0.075)"/><path class="cls-1" d="M33.407,34.351A13.929,13.929,0,0,0,26.2,36.378V43.3h0.152a9.112,9.112,0,0,1,7.054-2.926c5.975,0,11.631,3.7,15.752,3.7V38.054a22.593,22.593,0,0,1-6.974-1.685C39.34,35.377,36.4,34.351,33.407,34.351Z" transform="translate(0 -0.075)"/><path class="cls-2" d="M63.366,41.69V3.209H70.8V21.5L86.862,3.156h8.19L80.395,20.25,95.968,41.69H87.616L75.707,25.029,70.8,30.184V41.69H63.366Z" transform="translate(0 -0.075)"/><path class="cls-2" d="M110.36,42.233a15.429,15.429,0,0,1-6.2-1.193A13.948,13.948,0,0,1,99.5,37.807a14.245,14.245,0,0,1-2.936-4.7,15.912,15.912,0,0,1,0-11.232,14.29,14.29,0,0,1,2.936-4.7,13.937,13.937,0,0,1,4.662-3.229,15.43,15.43,0,0,1,6.2-1.2,15.22,15.22,0,0,1,6.168,1.2,13.981,13.981,0,0,1,4.636,3.229,14.29,14.29,0,0,1,2.936,4.7,15.912,15.912,0,0,1,0,11.232,14.432,14.432,0,0,1-2.91,4.7,13.632,13.632,0,0,1-4.633,3.233A15.426,15.426,0,0,1,110.36,42.233Zm-7.383-14.708a9.954,9.954,0,0,0,.566,3.445,8.4,8.4,0,0,0,1.561,2.685,7,7,0,0,0,2.344,1.767,7.114,7.114,0,0,0,5.822,0,7.02,7.02,0,0,0,2.344-1.767,8.345,8.345,0,0,0,1.561-2.712,10.216,10.216,0,0,0,.566-3.472,10.059,10.059,0,0,0-.566-3.423,8.391,8.391,0,0,0-1.561-2.712,7.007,7.007,0,0,0-2.344-1.762,6.856,6.856,0,0,0-2.91-.627,6.563,6.563,0,0,0-2.912.654,7.305,7.305,0,0,0-2.344,1.789,8.367,8.367,0,0,0-1.561,2.716A10.016,10.016,0,0,0,102.976,27.525Z" transform="translate(0 -0.075)"/><path class="cls-2" d="M146.032,42.233a11.314,11.314,0,0,1-5.767-1.466,10.645,10.645,0,0,1-3.987-4.015V41.69h-6.307V2.07h7.221V18.245a10.91,10.91,0,0,1,3.962-4.046,11.132,11.132,0,0,1,5.739-1.44,10.594,10.594,0,0,1,5.013,1.2,12.6,12.6,0,0,1,3.905,3.2,14.446,14.446,0,0,1,2.533,4.722,18.157,18.157,0,0,1,.89,5.7,16.286,16.286,0,0,1-1,5.755,14.5,14.5,0,0,1-2.774,4.638,13.069,13.069,0,0,1-4.2,3.123A12.15,12.15,0,0,1,146.032,42.233Zm-2-6.188a7.385,7.385,0,0,0,3.18-.68,7.567,7.567,0,0,0,2.48-1.815,8.258,8.258,0,0,0,1.59-2.659,9.273,9.273,0,0,0,.566-3.26,10.137,10.137,0,0,0-.539-3.308,8.622,8.622,0,0,0-1.535-2.769,7.746,7.746,0,0,0-2.344-1.9,6.32,6.32,0,0,0-2.965-.707,6.567,6.567,0,0,0-4.337,1.6,10.629,10.629,0,0,0-2.938,3.935V31.27a6.172,6.172,0,0,0,1.105,1.952,8,8,0,0,0,1.645,1.493,7.826,7.826,0,0,0,1.993.976A6.643,6.643,0,0,0,144.037,36.045Z" transform="translate(0 -0.075)"/><path class="cls-2" d="M177.234,42.233a15.59,15.59,0,0,1-6.144-1.166,13.91,13.91,0,0,1-7.679-7.844,15.086,15.086,0,0,1-1.05-5.592,15.968,15.968,0,0,1,1.024-5.724,13.986,13.986,0,0,1,2.965-4.722,14.139,14.139,0,0,1,4.715-3.229,15.62,15.62,0,0,1,6.225-1.2,15.238,15.238,0,0,1,6.171,1.2,14.257,14.257,0,0,1,4.638,3.2,13.665,13.665,0,0,1,2.9,4.669,15.589,15.589,0,0,1,1,5.534c0,0.473-.009.923-0.026,1.356a5.732,5.732,0,0,1-.132,1.087H170.013a8.474,8.474,0,0,0,.809,2.986,7.433,7.433,0,0,0,1.669,2.226,7.3,7.3,0,0,0,2.318,1.409,7.539,7.539,0,0,0,2.695.49,8.262,8.262,0,0,0,4.068-1.06,5.592,5.592,0,0,0,2.614-2.8l6.2,1.736a12.65,12.65,0,0,1-4.989,5.349A15.375,15.375,0,0,1,177.234,42.233Zm7.328-17.151a7.584,7.584,0,0,0-2.344-5.128,7.311,7.311,0,0,0-9.995.027,7.4,7.4,0,0,0-1.59,2.226,7.8,7.8,0,0,0-.728,2.875h14.657Z" transform="translate(0 -0.075)"/></svg>