<svg id="Layer_1" data-name="Layer 1" xmlns="http://www.w3.org/2000/svg" viewBox="0 0 498 210"><defs><style>.cls-1{fill:#fff;}</style></defs><title>header-logo</title><path class="cls-1" d="M98.285,139.019A39.425,39.425,0,0,1,81.79,153.726q-10.9,5.491-26.413,5.489-23.371,0-38.489-11.372t-16.5-31.764h35.74q0.782,7.844,5.6,12.352A17.218,17.218,0,0,0,54,132.94q6.481,0,10.212-3.529A12.355,12.355,0,0,0,67.946,120a12.151,12.151,0,0,0-3.436-8.824,27,27,0,0,0-8.542-5.784Q50.858,103.141,41.828,100a173.259,173.259,0,0,1-21.5-8.726A39.524,39.524,0,0,1,5.99,78.725Q0,70.394,0,57.059,0,44.706,6.284,35.685A39.957,39.957,0,0,1,23.663,21.862a63.484,63.484,0,0,1,25.43-4.8q23.169,0,36.82,10.98t15.415,30.2H65a18.615,18.615,0,0,0-5.007-10.882q-4.027-4.017-10.9-4.02A14.066,14.066,0,0,0,39.57,46.47q-3.636,3.139-3.633,9.216a11.688,11.688,0,0,0,3.24,8.333,24.657,24.657,0,0,0,8.15,5.589q4.907,2.159,14.139,5.49a155.915,155.915,0,0,1,21.8,8.921A41.731,41.731,0,0,1,97.795,96.863q6.085,8.432,6.087,21.961A38.164,38.164,0,0,1,98.285,139.019Z"/><path class="cls-1" d="M215.128,53.823a46.428,46.428,0,0,1,16.888,19.412q6.186,12.647,6.186,29.9,0,17.059-6.186,29.8t-16.888,19.511a44.437,44.437,0,0,1-24.252,6.764q-12.57,0-21.6-5.685a33.012,33.012,0,0,1-13.158-15.491V210h-33.58V48.431h33.58v19.8a33.044,33.044,0,0,1,13.158-15.49q9.03-5.685,21.6-5.686A44.438,44.438,0,0,1,215.128,53.823ZM162.7,83.627q-6.775,7.159-6.775,19.509,0,12.16,6.775,19.412t17.379,7.255q10.8,0,17.379-7.058t6.578-19.608q0-12.544-6.578-19.607t-17.379-7.06Q169.471,76.47,162.7,83.627Z"/><path class="cls-1" d="M258.034,5q5.494-5,14.531-5T287.1,5a16.359,16.359,0,0,1,5.5,12.647A16.143,16.143,0,0,1,287.1,30.1q-5.5,5-14.532,5t-14.531-5a16.135,16.135,0,0,1-5.5-12.451A16.351,16.351,0,0,1,258.034,5Zm31.223,43.432V157.843H255.678V48.431h33.579Z"/><path class="cls-1" d="M366.234,33.529q-8.248,0-11.979,3.53t-4.123,11.373h19.833V76.666H350.132v81.177H316.551V76.666H303.394V48.431h13.157V47.254q0-20.39,11.881-31.47T362.9,4.706q4.713,0,7.069.2V33.725Z"/><path class="cls-1" d="M410.024,48.431l26.314,67.059,24.547-67.059H498L429.661,210H392.743l25.724-56.274L372.516,48.431h37.507Z"/></svg>