<svg id="Layer_4" data-name="Layer 4" xmlns="http://www.w3.org/2000/svg" viewBox="0 0 104 44"><defs><style>.cls-1{fill:#fff;}</style></defs><title>logo</title><path class="cls-1" d="M20.526,29.038a8.233,8.233,0,0,1-3.445,3.081,12.107,12.107,0,0,1-5.516,1.151,12.973,12.973,0,0,1-8.038-2.383A8.635,8.635,0,0,1,.082,24.231H7.546A3.941,3.941,0,0,0,8.715,26.82a3.587,3.587,0,0,0,2.563.945,2.971,2.971,0,0,0,2.132-.739,2.592,2.592,0,0,0,.779-1.972,2.552,2.552,0,0,0-.717-1.849,5.639,5.639,0,0,0-1.784-1.212q-1.068-.472-2.953-1.13a36.028,36.028,0,0,1-4.491-1.828,8.261,8.261,0,0,1-2.994-2.63A7.615,7.615,0,0,1,0,11.865,7.652,7.652,0,0,1,1.312,7.387a8.345,8.345,0,0,1,3.629-2.9,13.223,13.223,0,0,1,5.311-1.006,11.893,11.893,0,0,1,7.689,2.3,8.786,8.786,0,0,1,3.219,6.327H13.574a3.908,3.908,0,0,0-1.046-2.281,3.074,3.074,0,0,0-2.276-.842,2.931,2.931,0,0,0-1.989.657A2.417,2.417,0,0,0,7.5,11.578a2.454,2.454,0,0,0,.677,1.746,5.141,5.141,0,0,0,1.7,1.171q1.025,0.452,2.953,1.15a32.517,32.517,0,0,1,4.552,1.869,8.72,8.72,0,0,1,3.035,2.692,7.7,7.7,0,0,1,1.272,4.6A8.014,8.014,0,0,1,20.526,29.038Z" transform="translate(0 0.09)"/><path class="cls-1" d="M44.926,11.188a9.712,9.712,0,0,1,3.526,4.067,14.136,14.136,0,0,1,1.293,6.265,14.167,14.167,0,0,1-1.293,6.245,9.682,9.682,0,0,1-3.526,4.088,9.25,9.25,0,0,1-5.064,1.418,8.27,8.27,0,0,1-4.511-1.191A6.915,6.915,0,0,1,32.6,28.833V43.91H25.59V10.058H32.6v4.149a6.915,6.915,0,0,1,2.748-3.245A8.27,8.27,0,0,1,39.862,9.77,9.254,9.254,0,0,1,44.926,11.188ZM33.977,17.432a5.716,5.716,0,0,0-1.415,4.088,5.73,5.73,0,0,0,1.415,4.068,5.142,5.142,0,0,0,7.259.041,5.807,5.807,0,0,0,1.374-4.109,5.806,5.806,0,0,0-1.374-4.108A5.167,5.167,0,0,0,33.977,17.432Z" transform="translate(0 0.09)"/><path class="cls-1" d="M53.887,0.957a4.921,4.921,0,0,1,6.069,0A3.432,3.432,0,0,1,61.1,3.608a3.385,3.385,0,0,1-1.148,2.608,4.918,4.918,0,0,1-6.069,0,3.382,3.382,0,0,1-1.149-2.608A3.43,3.43,0,0,1,53.887.957Zm6.52,9.1V32.982H53.4V10.058h7.012Z" transform="translate(0 0.09)"/><path class="cls-1" d="M76.483,6.935a3.551,3.551,0,0,0-2.5.739,3.405,3.405,0,0,0-.86,2.383h4.142v5.916H73.12V32.982H66.107V15.973H63.36V10.058h2.747V9.811a8.587,8.587,0,0,1,2.482-6.594Q71.069,0.9,75.785.9q0.985,0,1.477.041V6.977Z" transform="translate(0 0.09)"/><path class="cls-1" d="M85.628,10.058l5.495,14.051,5.126-14.051H104L89.729,43.91h-7.71l5.372-11.791-9.6-22.061h7.834Z" transform="translate(0 0.09)"/></svg>