<svg id="Layer_1" data-name="Layer 1" xmlns="http://www.w3.org/2000/svg" viewBox="0 0 320 512"><defs><style>.cls-1{fill:#026cfe;}.cls-2{fill:#292f82;}</style></defs><title>about</title><g id="_Group_" data-name="&lt;Group&gt;"><g id="_Group_2" data-name="&lt;Group&gt;"><circle id="_Path_" data-name="&lt;Path&gt;" class="cls-1" cx="278.567" cy="393.024" r="4.118"/><circle id="_Path_2" data-name="&lt;Path&gt;" class="cls-1" cx="278.567" cy="366.667" r="4.118"/><circle id="_Path_3" data-name="&lt;Path&gt;" class="cls-1" cx="278.567" cy="340.31" r="4.118"/></g><g id="_Group_3" data-name="&lt;Group&gt;"><circle id="_Path_4" data-name="&lt;Path&gt;" class="cls-1" cx="253.691" cy="393.024" r="4.118"/><circle id="_Path_5" data-name="&lt;Path&gt;" class="cls-1" cx="253.691" cy="366.667" r="4.118"/><circle id="_Path_6" data-name="&lt;Path&gt;" class="cls-1" cx="253.691" cy="340.31" r="4.118"/></g><g id="_Group_4" data-name="&lt;Group&gt;"><circle id="_Path_7" data-name="&lt;Path&gt;" class="cls-1" cx="228.815" cy="393.024" r="4.118"/><circle id="_Path_8" data-name="&lt;Path&gt;" class="cls-1" cx="228.815" cy="366.667" r="4.118"/><circle id="_Path_9" data-name="&lt;Path&gt;" class="cls-1" cx="228.815" cy="340.31" r="4.118"/></g><g id="_Group_5" data-name="&lt;Group&gt;"><circle id="_Path_10" data-name="&lt;Path&gt;" class="cls-1" cx="203.938" cy="393.024" r="4.118"/><circle id="_Path_11" data-name="&lt;Path&gt;" class="cls-1" cx="203.938" cy="366.667" r="4.118"/><circle id="_Path_12" data-name="&lt;Path&gt;" class="cls-1" cx="203.938" cy="340.31" r="4.118"/></g><g id="_Group_6" data-name="&lt;Group&gt;"><circle id="_Path_13" data-name="&lt;Path&gt;" class="cls-1" cx="179.062" cy="393.024" r="4.118"/><circle id="_Path_14" data-name="&lt;Path&gt;" class="cls-1" cx="179.062" cy="366.667" r="4.118"/><circle id="_Path_15" data-name="&lt;Path&gt;" class="cls-1" cx="179.062" cy="340.31" r="4.118"/></g><g id="_Group_7" data-name="&lt;Group&gt;"><circle id="_Path_16" data-name="&lt;Path&gt;" class="cls-1" cx="154.185" cy="393.024" r="4.118"/><circle id="_Path_17" data-name="&lt;Path&gt;" class="cls-1" cx="154.185" cy="366.667" r="4.118"/><circle id="_Path_18" data-name="&lt;Path&gt;" class="cls-1" cx="154.185" cy="340.31" r="4.118"/></g><g id="_Group_8" data-name="&lt;Group&gt;"><circle id="_Path_19" data-name="&lt;Path&gt;" class="cls-1" cx="129.309" cy="393.024" r="4.118"/><circle id="_Path_20" data-name="&lt;Path&gt;" class="cls-1" cx="129.309" cy="366.667" r="4.118"/><circle id="_Path_21" data-name="&lt;Path&gt;" class="cls-1" cx="129.309" cy="340.31" r="4.118"/></g><g id="_Group_9" data-name="&lt;Group&gt;"><circle id="_Path_22" data-name="&lt;Path&gt;" class="cls-1" cx="104.433" cy="393.024" r="4.118"/><circle id="_Path_23" data-name="&lt;Path&gt;" class="cls-1" cx="104.433" cy="366.667" r="4.118"/><circle id="_Path_24" data-name="&lt;Path&gt;" class="cls-1" cx="104.433" cy="340.31" r="4.118"/></g></g><g id="_Group_10" data-name="&lt;Group&gt;"><g id="_Group_11" data-name="&lt;Group&gt;"><circle id="_Path_25" data-name="&lt;Path&gt;" class="cls-1" cx="278.567" cy="315.25" r="4.118"/><circle id="_Path_26" data-name="&lt;Path&gt;" class="cls-1" cx="278.567" cy="288.893" r="4.118"/><circle id="_Path_27" data-name="&lt;Path&gt;" class="cls-1" cx="278.567" cy="262.536" r="4.118"/><circle id="_Path_28" data-name="&lt;Path&gt;" class="cls-1" cx="278.567" cy="236.179" r="4.118"/><circle id="_Path_29" data-name="&lt;Path&gt;" class="cls-1" cx="278.567" cy="209.821" r="4.118"/><circle id="_Path_30" data-name="&lt;Path&gt;" class="cls-1" cx="278.567" cy="183.464" r="4.118"/><circle id="_Path_31" data-name="&lt;Path&gt;" class="cls-1" cx="278.567" cy="157.107" r="4.118"/><circle id="_Path_32" data-name="&lt;Path&gt;" class="cls-1" cx="278.567" cy="130.749" r="4.118"/></g><g id="_Group_12" data-name="&lt;Group&gt;"><circle id="_Path_33" data-name="&lt;Path&gt;" class="cls-1" cx="253.691" cy="315.25" r="4.118"/><circle id="_Path_34" data-name="&lt;Path&gt;" class="cls-1" cx="253.691" cy="288.893" r="4.118"/><circle id="_Path_35" data-name="&lt;Path&gt;" class="cls-1" cx="253.691" cy="262.536" r="4.118"/><circle id="_Path_36" data-name="&lt;Path&gt;" class="cls-1" cx="253.691" cy="236.179" r="4.118"/><circle id="_Path_37" data-name="&lt;Path&gt;" class="cls-1" cx="253.691" cy="209.821" r="4.118"/><circle id="_Path_38" data-name="&lt;Path&gt;" class="cls-1" cx="253.691" cy="183.464" r="4.118"/><circle id="_Path_39" data-name="&lt;Path&gt;" class="cls-1" cx="253.691" cy="157.107" r="4.118"/><circle id="_Path_40" data-name="&lt;Path&gt;" class="cls-1" cx="253.691" cy="130.749" r="4.118"/></g><g id="_Group_13" data-name="&lt;Group&gt;"><circle id="_Path_41" data-name="&lt;Path&gt;" class="cls-1" cx="228.815" cy="315.25" r="4.118"/><circle id="_Path_42" data-name="&lt;Path&gt;" class="cls-1" cx="228.815" cy="288.893" r="4.118"/><circle id="_Path_43" data-name="&lt;Path&gt;" class="cls-1" cx="228.815" cy="262.536" r="4.118"/><circle id="_Path_44" data-name="&lt;Path&gt;" class="cls-1" cx="228.815" cy="236.179" r="4.118"/><circle id="_Path_45" data-name="&lt;Path&gt;" class="cls-1" cx="228.815" cy="209.821" r="4.118"/><circle id="_Path_46" data-name="&lt;Path&gt;" class="cls-1" cx="228.815" cy="183.464" r="4.118"/><circle id="_Path_47" data-name="&lt;Path&gt;" class="cls-1" cx="228.815" cy="157.107" r="4.118"/><circle id="_Path_48" data-name="&lt;Path&gt;" class="cls-1" cx="228.815" cy="130.749" r="4.118"/></g><g id="_Group_14" data-name="&lt;Group&gt;"><circle id="_Path_49" data-name="&lt;Path&gt;" class="cls-1" cx="203.938" cy="315.25" r="4.118"/><circle id="_Path_50" data-name="&lt;Path&gt;" class="cls-1" cx="203.938" cy="288.893" r="4.118"/><circle id="_Path_51" data-name="&lt;Path&gt;" class="cls-1" cx="203.938" cy="262.536" r="4.118"/><circle id="_Path_52" data-name="&lt;Path&gt;" class="cls-1" cx="203.938" cy="236.179" r="4.118"/><circle id="_Path_53" data-name="&lt;Path&gt;" class="cls-1" cx="203.938" cy="209.821" r="4.118"/><circle id="_Path_54" data-name="&lt;Path&gt;" class="cls-1" cx="203.938" cy="183.464" r="4.118"/><circle id="_Path_55" data-name="&lt;Path&gt;" class="cls-1" cx="203.938" cy="157.107" r="4.118"/><circle id="_Path_56" data-name="&lt;Path&gt;" class="cls-1" cx="203.938" cy="130.749" r="4.118"/></g><g id="_Group_15" data-name="&lt;Group&gt;"><circle id="_Path_57" data-name="&lt;Path&gt;" class="cls-1" cx="179.062" cy="315.25" r="4.118"/><circle id="_Path_58" data-name="&lt;Path&gt;" class="cls-1" cx="179.062" cy="288.893" r="4.118"/><circle id="_Path_59" data-name="&lt;Path&gt;" class="cls-1" cx="179.062" cy="262.536" r="4.118"/><circle id="_Path_60" data-name="&lt;Path&gt;" class="cls-1" cx="179.062" cy="236.179" r="4.118"/><circle id="_Path_61" data-name="&lt;Path&gt;" class="cls-1" cx="179.062" cy="209.821" r="4.118"/><circle id="_Path_62" data-name="&lt;Path&gt;" class="cls-1" cx="179.062" cy="183.464" r="4.118"/><circle id="_Path_63" data-name="&lt;Path&gt;" class="cls-1" cx="179.062" cy="157.107" r="4.118"/><circle id="_Path_64" data-name="&lt;Path&gt;" class="cls-1" cx="179.062" cy="130.749" r="4.118"/></g><g id="_Group_16" data-name="&lt;Group&gt;"><circle id="_Path_65" data-name="&lt;Path&gt;" class="cls-1" cx="154.185" cy="315.25" r="4.118"/><circle id="_Path_66" data-name="&lt;Path&gt;" class="cls-1" cx="154.185" cy="288.893" r="4.118"/><circle id="_Path_67" data-name="&lt;Path&gt;" class="cls-1" cx="154.185" cy="262.536" r="4.118"/><circle id="_Path_68" data-name="&lt;Path&gt;" class="cls-1" cx="154.185" cy="236.179" r="4.118"/><circle id="_Path_69" data-name="&lt;Path&gt;" class="cls-1" cx="154.185" cy="209.821" r="4.118"/><circle id="_Path_70" data-name="&lt;Path&gt;" class="cls-1" cx="154.185" cy="183.464" r="4.118"/><circle id="_Path_71" data-name="&lt;Path&gt;" class="cls-1" cx="154.185" cy="157.107" r="4.118"/><circle id="_Path_72" data-name="&lt;Path&gt;" class="cls-1" cx="154.185" cy="130.749" r="4.118"/></g><g id="_Group_17" data-name="&lt;Group&gt;"><circle id="_Path_73" data-name="&lt;Path&gt;" class="cls-1" cx="129.309" cy="315.25" r="4.118"/><circle id="_Path_74" data-name="&lt;Path&gt;" class="cls-1" cx="129.309" cy="288.893" r="4.118"/><circle id="_Path_75" data-name="&lt;Path&gt;" class="cls-1" cx="129.309" cy="262.536" r="4.118"/><circle id="_Path_76" data-name="&lt;Path&gt;" class="cls-1" cx="129.309" cy="236.179" r="4.118"/><circle id="_Path_77" data-name="&lt;Path&gt;" class="cls-1" cx="129.309" cy="209.821" r="4.118"/><circle id="_Path_78" data-name="&lt;Path&gt;" class="cls-1" cx="129.309" cy="183.464" r="4.118"/><circle id="_Path_79" data-name="&lt;Path&gt;" class="cls-1" cx="129.309" cy="157.107" r="4.118"/><circle id="_Path_80" data-name="&lt;Path&gt;" class="cls-1" cx="129.309" cy="130.749" r="4.118"/></g><g id="_Group_18" data-name="&lt;Group&gt;"><circle id="_Path_81" data-name="&lt;Path&gt;" class="cls-1" cx="104.433" cy="315.25" r="4.118"/><circle id="_Path_82" data-name="&lt;Path&gt;" class="cls-1" cx="104.433" cy="288.893" r="4.118"/><circle id="_Path_83" data-name="&lt;Path&gt;" class="cls-1" cx="104.433" cy="262.536" r="4.118"/><circle id="_Path_84" data-name="&lt;Path&gt;" class="cls-1" cx="104.433" cy="236.179" r="4.118"/><circle id="_Path_85" data-name="&lt;Path&gt;" class="cls-1" cx="104.433" cy="209.821" r="4.118"/><circle id="_Path_86" data-name="&lt;Path&gt;" class="cls-1" cx="104.433" cy="183.464" r="4.118"/><circle id="_Path_87" data-name="&lt;Path&gt;" class="cls-1" cx="104.433" cy="157.107" r="4.118"/><circle id="_Path_88" data-name="&lt;Path&gt;" class="cls-1" cx="104.433" cy="130.749" r="4.118"/></g></g><path class="cls-2" d="M272,0H48A48.012,48.012,0,0,0,0,48V464a48.012,48.012,0,0,0,48,48H272a48.012,48.012,0,0,0,48-48V48A48.012,48.012,0,0,0,272,0ZM160,480a32,32,0,1,1,32-32A31.966,31.966,0,0,1,160,480ZM272,372a12.035,12.035,0,0,1-12,12H60a12.035,12.035,0,0,1-12-12V60A12.035,12.035,0,0,1,60,48H260a12.035,12.035,0,0,1,12,12V372Z"/></svg>