<svg id="Layer_1" data-name="Layer 1" xmlns="http://www.w3.org/2000/svg" viewBox="0 0 512 384"><defs><style>.cls-1{fill:#f2f3fd;}</style></defs><title>contact-envelope</title><path class="cls-1" d="M464,0H48A48,48,0,0,0,0,48V336a48,48,0,0,0,48,48H464a48,48,0,0,0,48-48V48A48,48,0,0,0,464,0Zm0,48V88.8c-22.422,18.259-58.168,46.651-134.587,106.49-16.841,13.247-50.2,45.072-73.413,44.7-23.208.375-56.579-31.459-73.413-44.7C106.18,135.465,70.425,107.067,48,88.8V48H464ZM48,336V150.4c22.914,18.251,55.409,43.862,104.938,82.646C174.795,250.249,213.072,288.23,256,288c42.717,0.231,80.509-37.2,103.053-54.947,49.528-38.783,82.032-64.4,104.947-82.653V336H48Z"/></svg>