<svg id="Layer_2" data-name="Layer 2" xmlns="http://www.w3.org/2000/svg" viewBox="0 0 205.513 144.956"><defs><style>.cls-1{fill:#292f82;}.cls-2{fill:none;stroke:#026cfe;stroke-linecap:round;stroke-linejoin:round;stroke-width:0.3px;}.cls-3{fill:#026cfe;}</style></defs><title>details-2</title><path class="cls-1" d="M191.923,0H37.907a13.59,13.59,0,0,0-13.59,13.59v90.6a13.59,13.59,0,0,0,13.59,13.59h67.948v9.06H56.027a4.53,4.53,0,0,0-4.53,4.53v9.06a4.53,4.53,0,0,0,4.53,4.53H173.8a4.53,4.53,0,0,0,4.53-4.53v-9.06a4.53,4.53,0,0,0-4.53-4.53H123.975v-9.06h67.948a13.59,13.59,0,0,0,13.59-13.59V13.59A13.59,13.59,0,0,0,191.923,0Zm-4.53,99.657H42.437V18.12H187.393V99.657Z"/><g id="_Group_" data-name="&lt;Group&gt;"><g id="_Group_2" data-name="&lt;Group&gt;"><circle id="_Path_" data-name="&lt;Path&gt;" class="cls-2" cx="180.141" cy="25.537" r="1.397"/><circle id="_Path_2" data-name="&lt;Path&gt;" class="cls-2" cx="180.141" cy="34.481" r="1.398"/><circle id="_Path_3" data-name="&lt;Path&gt;" class="cls-2" cx="180.141" cy="43.425" r="1.398"/><circle id="_Path_4" data-name="&lt;Path&gt;" class="cls-2" cx="180.141" cy="52.369" r="1.397"/><circle id="_Path_5" data-name="&lt;Path&gt;" class="cls-2" cx="180.141" cy="61.313" r="1.398"/><circle id="_Path_6" data-name="&lt;Path&gt;" class="cls-2" cx="180.141" cy="70.258" r="1.397"/><circle id="_Path_7" data-name="&lt;Path&gt;" class="cls-2" cx="180.141" cy="79.202" r="1.398"/><circle id="_Path_8" data-name="&lt;Path&gt;" class="cls-2" cx="180.141" cy="88.146" r="1.398"/></g><g id="_Group_3" data-name="&lt;Group&gt;"><circle id="_Path_9" data-name="&lt;Path&gt;" class="cls-2" cx="171.699" cy="25.537" r="1.398"/><circle id="_Path_10" data-name="&lt;Path&gt;" class="cls-2" cx="171.699" cy="34.481" r="1.398"/><circle id="_Path_11" data-name="&lt;Path&gt;" class="cls-2" cx="171.699" cy="43.425" r="1.398"/><circle id="_Path_12" data-name="&lt;Path&gt;" class="cls-2" cx="171.699" cy="52.369" r="1.398"/><circle id="_Path_13" data-name="&lt;Path&gt;" class="cls-2" cx="171.699" cy="61.313" r="1.397"/><circle id="_Path_14" data-name="&lt;Path&gt;" class="cls-2" cx="171.699" cy="70.258" r="1.397"/><circle id="_Path_15" data-name="&lt;Path&gt;" class="cls-2" cx="171.699" cy="79.202" r="1.398"/></g><g id="_Group_4" data-name="&lt;Group&gt;"><circle id="_Path_16" data-name="&lt;Path&gt;" class="cls-2" cx="163.257" cy="25.537" r="1.397"/><circle id="_Path_17" data-name="&lt;Path&gt;" class="cls-2" cx="163.257" cy="34.481" r="1.398"/><circle id="_Path_18" data-name="&lt;Path&gt;" class="cls-2" cx="163.257" cy="43.425" r="1.398"/><circle id="_Path_19" data-name="&lt;Path&gt;" class="cls-2" cx="163.257" cy="52.369" r="1.397"/><circle id="_Path_20" data-name="&lt;Path&gt;" class="cls-2" cx="163.257" cy="61.313" r="1.398"/><circle id="_Path_21" data-name="&lt;Path&gt;" class="cls-2" cx="163.257" cy="70.258" r="1.397"/></g><g id="_Group_5" data-name="&lt;Group&gt;"><circle id="_Path_22" data-name="&lt;Path&gt;" class="cls-2" cx="154.816" cy="25.537" r="1.398"/><circle id="_Path_23" data-name="&lt;Path&gt;" class="cls-2" cx="154.816" cy="34.481" r="1.398"/><circle id="_Path_24" data-name="&lt;Path&gt;" class="cls-2" cx="154.816" cy="43.425" r="1.397"/><circle id="_Path_25" data-name="&lt;Path&gt;" class="cls-2" cx="154.816" cy="52.369" r="1.398"/><circle id="_Path_26" data-name="&lt;Path&gt;" class="cls-2" cx="154.816" cy="61.313" r="1.398"/></g><g id="_Group_6" data-name="&lt;Group&gt;"><circle id="_Path_27" data-name="&lt;Path&gt;" class="cls-2" cx="146.374" cy="25.537" r="1.398"/><circle id="_Path_28" data-name="&lt;Path&gt;" class="cls-2" cx="146.374" cy="34.481" r="1.398"/><circle id="_Path_29" data-name="&lt;Path&gt;" class="cls-2" cx="146.374" cy="43.425" r="1.398"/><circle id="_Path_30" data-name="&lt;Path&gt;" class="cls-2" cx="146.374" cy="52.369" r="1.398"/></g><g id="_Group_7" data-name="&lt;Group&gt;"><circle id="_Path_31" data-name="&lt;Path&gt;" class="cls-2" cx="137.933" cy="25.537" r="1.398"/><circle id="_Path_32" data-name="&lt;Path&gt;" class="cls-2" cx="137.933" cy="34.481" r="1.398"/><circle id="_Path_33" data-name="&lt;Path&gt;" class="cls-2" cx="137.933" cy="43.425" r="1.398"/></g><g id="_Group_8" data-name="&lt;Group&gt;"><circle id="_Path_34" data-name="&lt;Path&gt;" class="cls-2" cx="129.491" cy="25.537" r="1.398"/><circle id="_Path_35" data-name="&lt;Path&gt;" class="cls-2" cx="129.491" cy="34.481" r="1.398"/></g><g id="_Group_9" data-name="&lt;Group&gt;"><circle id="_Path_36" data-name="&lt;Path&gt;" class="cls-2" cx="121.049" cy="25.537" r="1.398"/></g></g><g id="_Group_10" data-name="&lt;Group&gt;"><polygon id="_Path_37" data-name="&lt;Path&gt;" class="cls-3" points="0 144.733 8.507 129.998 17.014 144.733 0 144.733"/><polygon id="_Path_38" data-name="&lt;Path&gt;" class="cls-3" points="0 123.439 8.507 108.704 17.014 123.439 0 123.439"/><polygon id="_Path_39" data-name="&lt;Path&gt;" class="cls-3" points="0 102.145 8.507 87.411 17.014 102.145 0 102.145"/><polygon id="_Path_40" data-name="&lt;Path&gt;" class="cls-3" points="0 80.851 8.507 66.117 17.014 80.851 0 80.851"/><polygon id="_Path_41" data-name="&lt;Path&gt;" class="cls-3" points="0 59.557 8.507 44.823 17.014 59.557 0 59.557"/></g></svg>