<svg id="Layer_1" data-name="Layer 1" xmlns="http://www.w3.org/2000/svg" viewBox="0 0 575.98 512.025"><defs><style>.cls-1{fill:#e1e4f9;}</style></defs><title>header-gem</title><path class="cls-1" d="M464,0H112a11.913,11.913,0,0,0-10,5.4L2,152.6a12.01,12.01,0,0,0,.7,14.2l276,340.8a11.985,11.985,0,0,0,18.6,0l276-340.8a12.018,12.018,0,0,0,.7-14.2L474.1,5.4A12.087,12.087,0,0,0,464,0ZM444.7,48L508,144H439.6L387.9,48h56.8ZM242.6,48h90.7L385,144H191ZM131.3,48h56.8l-51.7,96H68Zm-43,144h51.4L208,352Zm102.9,0H384.8L288,435.3,191.2,192h0ZM368,352l68.2-160h51.4Z" transform="translate(-0.01)"/></svg>