<svg id="Layer_2" data-name="Layer 2" xmlns="http://www.w3.org/2000/svg" viewBox="0 0 262 42"><defs><style>.cls-1{fill:#f7f7f9;}</style></defs><title>logo</title><path class="cls-1" d="M38.051,0H9.184a0.977,0.977,0,0,0-.82.443l-8.2,12.074a0.985,0.985,0,0,0,.057,1.165L22.855,41.637a0.983,0.983,0,0,0,1.525,0L47.014,13.682a0.986,0.986,0,0,0,.057-1.165L38.879,0.443A0.991,0.991,0,0,0,38.051,0ZM36.468,3.937l5.191,7.875H36.05L31.81,3.937h4.658Zm-16.574,0h7.438l4.24,7.875H15.663Zm-9.127,0h4.658l-4.24,7.875H5.576ZM7.24,15.749h4.215l5.6,13.124Zm8.439,0H31.556L23.617,35.706,15.679,15.749h0Zm14.5,13.124,5.593-13.124h4.215Z" transform="translate(0)"/><path class="cls-1" d="M88.768,34.724a14.223,14.223,0,0,1-10.507,4.722,15.171,15.171,0,0,1-6.7-1.5,17.278,17.278,0,0,1-5.38-4.036,18.89,18.89,0,0,1-3.579-5.89,19.278,19.278,0,0,1-1.294-7.006A18.885,18.885,0,0,1,62.6,14.061a18.4,18.4,0,0,1,3.579-5.788,16.835,16.835,0,0,1,5.43-3.935,17.808,17.808,0,0,1,15.532.711,13.932,13.932,0,0,1,5.279,5.711l-4.366,3.148A10.125,10.125,0,0,0,84,9.491a11.305,11.305,0,0,0-5.685-1.472,9.789,9.789,0,0,0-4.619,1.092A11.347,11.347,0,0,0,70.14,12a12.969,12.969,0,0,0-2.258,4.189,15.766,15.766,0,0,0-.786,4.976,14.573,14.573,0,0,0,.888,5.127,13.344,13.344,0,0,0,2.437,4.163,11.545,11.545,0,0,0,3.68,2.818,10.388,10.388,0,0,0,4.619,1.04,11.5,11.5,0,0,0,5.253-1.269,15.405,15.405,0,0,0,4.8-4.011V25.179H81.205V20.966H93.54V39.192H88.768V34.724Z" transform="translate(0)"/><path class="cls-1" d="M111.355,39.7a14.137,14.137,0,0,1-5.635-1.091,13.1,13.1,0,0,1-4.34-2.971,13.377,13.377,0,0,1-2.792-4.366,14.158,14.158,0,0,1-.99-5.281,14.364,14.364,0,0,1,.99-5.306,13.617,13.617,0,0,1,2.792-4.416,12.929,12.929,0,0,1,4.34-3,14.249,14.249,0,0,1,5.685-1.092,13.671,13.671,0,0,1,5.61,1.117,13.426,13.426,0,0,1,4.289,2.97,12.735,12.735,0,0,1,2.716,4.315,14.359,14.359,0,0,1,.939,5.153q0,0.61-.051,1.142c-0.034.355-.068,0.653-0.1,0.889H103.538a9.116,9.116,0,0,0,.838,3.2,8.42,8.42,0,0,0,1.776,2.462,7.8,7.8,0,0,0,5.406,2.158,8.874,8.874,0,0,0,2.207-.279,7.8,7.8,0,0,0,2.005-.813,7.09,7.09,0,0,0,1.624-1.3,6.053,6.053,0,0,0,1.117-1.675l4.771,1.371a11.062,11.062,0,0,1-4.543,4.9A14.076,14.076,0,0,1,111.355,39.7Zm8.07-15.789a8.922,8.922,0,0,0-.838-3.1,7.978,7.978,0,0,0-1.751-2.411,7.826,7.826,0,0,0-2.487-1.548,8.121,8.121,0,0,0-2.995-.558,7.941,7.941,0,0,0-5.431,2.107,7.651,7.651,0,0,0-1.726,2.411,9.31,9.31,0,0,0-.812,3.1h16.039Z" transform="translate(0)"/><path class="cls-1" d="M170.131,39.192h-5.584V24.317q0-3.707-1.218-5.433a4.077,4.077,0,0,0-3.553-1.727,6.349,6.349,0,0,0-4.34,1.752,9.854,9.854,0,0,0-2.817,4.543V39.192h-5.584V24.317q0-3.758-1.218-5.458a4.047,4.047,0,0,0-3.5-1.7,6.5,6.5,0,0,0-4.366,1.727,9.594,9.594,0,0,0-2.842,4.518v15.79h-5.584V12.639H134.6V17.97a11.221,11.221,0,0,1,4.137-4.29,11.411,11.411,0,0,1,5.863-1.5,7.461,7.461,0,0,1,5.2,1.727,7.4,7.4,0,0,1,2.359,4.315,12.152,12.152,0,0,1,4.214-4.493,10.881,10.881,0,0,1,5.786-1.549,7.717,7.717,0,0,1,3.883.889,6.874,6.874,0,0,1,2.462,2.361,9.746,9.746,0,0,1,1.269,3.427A23.192,23.192,0,0,1,170.131,23v16.2Z" transform="translate(0)"/><path class="cls-1" d="M187.388,39.7a11.4,11.4,0,0,1-4.974-1.091,12.429,12.429,0,0,1-3.958-2.971,13.757,13.757,0,0,1-2.615-4.392,16.012,16.012,0,0,1-.05-10.661,13.908,13.908,0,0,1,2.487-4.341,12.023,12.023,0,0,1,3.756-2.97,10.947,10.947,0,0,1,10.38.457,11.3,11.3,0,0,1,3.807,3.934V2.13H201.8V32.592a2.2,2.2,0,0,0,.33,1.37,1.592,1.592,0,0,0,1.193.457v4.772q-0.863.152-1.4,0.2c-0.355.033-.651,0.051-0.889,0.051a4.21,4.21,0,0,1-2.741-.864,3.047,3.047,0,0,1-1.167-2.234l-0.1-1.98a10.592,10.592,0,0,1-4.01,3.909A11.343,11.343,0,0,1,187.388,39.7Zm1.371-4.772a7.651,7.651,0,0,0,2.437-.406,8.613,8.613,0,0,0,2.233-1.117,7.85,7.85,0,0,0,1.751-1.675,6.038,6.038,0,0,0,1.041-2.081V22.691a8.336,8.336,0,0,0-1.295-2.335,9.26,9.26,0,0,0-1.9-1.828,8.7,8.7,0,0,0-2.258-1.168,7.452,7.452,0,0,0-2.412-.406,6.309,6.309,0,0,0-3.071.761,7.932,7.932,0,0,0-2.411,2.031,9.989,9.989,0,0,0-1.6,2.895,9.832,9.832,0,0,0-.583,3.35,9.379,9.379,0,0,0,.634,3.453,8.977,8.977,0,0,0,1.751,2.842,8.577,8.577,0,0,0,2.563,1.93A6.977,6.977,0,0,0,188.759,34.927Z" transform="translate(0)"/><path class="cls-1" d="M220.938,39.7a14.137,14.137,0,0,1-5.635-1.091,13.1,13.1,0,0,1-4.34-2.971,13.377,13.377,0,0,1-2.792-4.366,14.158,14.158,0,0,1-.99-5.281,14.364,14.364,0,0,1,.99-5.306,13.617,13.617,0,0,1,2.792-4.416,12.929,12.929,0,0,1,4.34-3,14.249,14.249,0,0,1,5.685-1.092A13.671,13.671,0,0,1,226.6,13.3a13.426,13.426,0,0,1,4.289,2.97,12.735,12.735,0,0,1,2.716,4.315,14.359,14.359,0,0,1,.939,5.153q0,0.61-.051,1.142c-0.034.355-.068,0.653-0.1,0.889H213.121a9.116,9.116,0,0,0,.838,3.2,8.42,8.42,0,0,0,1.776,2.462,7.8,7.8,0,0,0,5.406,2.158,8.874,8.874,0,0,0,2.207-.279,7.8,7.8,0,0,0,2.005-.813,7.09,7.09,0,0,0,1.624-1.3,6.053,6.053,0,0,0,1.117-1.675l4.771,1.371a11.062,11.062,0,0,1-4.543,4.9A14.076,14.076,0,0,1,220.938,39.7Zm8.07-15.789a8.922,8.922,0,0,0-.838-3.1A7.978,7.978,0,0,0,226.42,18.4a7.826,7.826,0,0,0-2.487-1.548,8.121,8.121,0,0,0-2.995-.558,7.941,7.941,0,0,0-5.431,2.107,7.651,7.651,0,0,0-1.726,2.411,9.31,9.31,0,0,0-.812,3.1h16.039Z" transform="translate(0)"/><path class="cls-1" d="M245.859,39.192L235.707,12.639h5.736l7.614,21.832,7.665-21.832H262L251.849,39.192h-5.99Z" transform="translate(0)"/></svg>